<?xml version="1.0" encoding="utf-8"?>
<!-- Generator: Adobe Illustrator 18.1.1, SVG Export Plug-In . SVG Version: 6.00 Build 0)  -->
<svg version="1.1"
	 id="svg1322" xmlns:sodipodi="http://inkscape.sourceforge.net/DTD/sodipodi-0.dtd" xmlns:cc="http://web.resource.org/cc/" xmlns:dc="http://purl.org/dc/elements/1.1/" xmlns:rdf="http://www.w3.org/1999/02/22-rdf-syntax-ns#" xmlns:svg="http://www.w3.org/2000/svg" xmlns:inkscape="http://www.inkscape.org/namespaces/inkscape" sodipodi:docname="compass.svg" sodipodi:version="0.32" sodipodi:docbase="C:\foo\wikipedia\transfer" inkscape:version="0.43"
	 xmlns="http://www.w3.org/2000/svg" xmlns:xlink="http://www.w3.org/1999/xlink" x="0px" y="0px" viewBox="330.9 104.1 39.3 47.7"
	 enable-background="new 330.9 104.1 39.3 47.7" xml:space="preserve">
<sodipodi:namedview  id="base" bordercolor="#666666" inkscape:zoom="0.77934522" pagecolor="#ffffff" inkscape:cy="270.4064" inkscape:cx="511.8787" borderopacity="1.0" inkscape:window-width="1024" inkscape:window-height="721" inkscape:pageshadow="2" inkscape:pageopacity="0.0" inkscape:window-x="-4" inkscape:window-y="-4" inkscape:current-layer="svg1322">
	</sodipodi:namedview>
<g id="g7524">
	<path id="path1331" d="M339.4,104.1c-1.9,0-3.6,1.4-4.1,3.4c-0.3,1.4,0,2.6,1.1,3.7c0.7,0.7,1.4,1.1,2.2,1.3l0.5,0.1l-0.6,0.4
		c-1.4,0.8-3,2.1-3.9,3.3c-2.5,3.1-3.5,5.6-3.7,8.8c-0.1,1.4,0.1,3.2,0.4,4.4c0.4,1.5,1,2.8,2,4.4c0.4,0.7,0.8,1,1.7,1.8
		c1.9,1.7,2.4,2,4.3,2.8c1.3,0.5,2.7,1,3.9,1.2c1,0.2,1.3,0.2,2.7,0.2c1.2,0,1.8,0,2.3-0.1c0.3-0.1,0.7-0.2,0.8-0.2c0,0,0,0,0,0
		c0,0,0,0,0,0c0,0,0,0,0,0c0,0,0,0,0,0c0,0,0,0,0,0c0,0,0,0,0,0c0,0,0,0,0,0c-0.1,0.1-0.6,0.4-1.3,0.7c-5,2.6-7.4,4.3-8.7,6
		c-0.7,0.9-0.8,1.9-0.5,2.8c0.4,1.2,1.5,2.2,2.8,2.5c0.6,0.1,3.7,0.2,5,0c2.9-0.3,6.3-1.2,9.4-2.5c1.4-0.6,5.4-2.6,6.7-3.4
		c2.8-1.6,4.9-3.3,6-4.7c0.6-0.8,1.2-1.9,1.5-2.7c0.2-0.7,0.2-2.9,0-3.4c-0.4-0.9-1.3-1.5-2.4-1.7c-1.7-0.3-5.9,0.5-9.2,1.7
		c-0.8,0.3-1.2,0.5-1.3,0.4c0,0,0,0,0,0c0,0,0,0,0,0c0,0,0,0,0,0c0,0,0,0,0,0c0-0.1,0.2-0.3,0.6-0.7c1.8-1.8,3.1-3.8,3.8-6
		c0.5-1.6,0.6-2.2,0.6-4.2c0-1.6,0-1.9-0.2-2.9c-0.8-3.9-2.7-6.9-5.5-8.7c-1.8-1.2-3.9-2-6.3-2.3c-1.8-0.3-4.7-0.1-6.3,0.2
		c-0.4,0.1-0.6,0.1-0.6,0.1c0,0,0,0,0,0c0,0,0,0,0,0c0,0,0,0,0,0c0,0,0,0,0,0c0,0,0,0,0,0c0,0,0,0,0,0c0,0,0,0,0,0
		c0,0,0.1-0.1,0.2-0.2c0.3-0.4,0.6-1.2,0.8-1.8c0.1-0.7,0-1.8-0.4-2.5c-0.3-0.5-1-1.4-1.4-1.7c-0.4-0.3-1.7-0.6-2.4-0.7
		C339.7,104.1,339.6,104.1,339.4,104.1z M339.4,105.1c0.4,0,0.8,0.1,1.3,0.2c0.8,0.3,1.6,1,1.9,1.8c0.3,0.9,0.2,2-0.3,2.9
		c-0.3,0.5-0.4,0.6-0.4,0.2c0-0.1,0-0.2,0.1-0.2c0,0,0.1,0,0.1,0c0,0,0,0,0,0c0,0,0,0,0,0c0,0,0,0,0,0c0,0,0,0,0,0c0,0,0,0,0,0
		c0,0,0,0,0,0c0,0,0-0.1-0.1-0.3c-0.2-0.4-0.6-0.5-1.2-0.5c-0.4,0-0.7,0-1,0.2c-0.7,0.3-1,0.8-1,1.4c0,0.3,0,0.4,0,0.4c0,0,0,0,0,0
		c0,0,0.1,0,0.3-0.1c0.2-0.1,0.2-0.1,0.3,0.1c0,0.1,0.1,0.2,0.1,0.2c0,0,0,0,0,0c0,0,0,0,0,0c0,0,0,0,0,0c0,0,0,0,0,0c0,0,0,0,0,0
		c0,0,0,0,0,0c0,0,0,0,0,0c0,0,0,0,0,0c0,0,0,0,0,0c0,0,0,0,0,0c0,0,0,0,0,0c0,0,0,0,0,0c0,0,0,0,0,0c0,0,0,0,0,0c0,0,0,0,0,0
		c-0.1,0-0.3,0-0.6-0.1c-1.5-0.4-2.3-1.4-2.4-2.7c-0.1-1.1,0.3-2,1.2-2.8C338,105.4,338.7,105.2,339.4,105.1z"/>
	<path id="path1401" fill="#FFE64D" d="M345.5,150.5c3-0.4,4.7-0.8,7.8-1.8c5-1.6,8.1-3.3,11.6-6.2c0.9-0.7,3.8-3.6,3.8-3.7
		c0,0-0.4,0.2-0.8,0.6c-1.6,1.2-3.7,2.6-5.3,3.5c-0.4,0.2-0.7,0.3-0.5,0.2c1.9-1.5,5.2-4.3,5.7-4.9c0.6-0.7,0.7-1.4,0.2-1.4
		c-0.2,0-0.4,0.1-2.3,1.8c-2.7,2.4-5.7,4.4-9.3,6.1c-3.7,1.8-6.4,2.8-9.7,3.6c-2.6,0.7-5.6,1-6.5,0.8c-0.3-0.1-0.3-0.1-0.3,0.2
		c0,0.6,0.7,1.2,1.5,1.3C342.1,150.8,343.8,150.8,345.5,150.5z"/>
	<path id="path1399" fill="#CCA300" d="M342.6,150.3c-0.5-0.1-0.8-0.2-0.9-0.3c-0.1-0.1-0.2-0.2-0.2-0.3s0.4-0.1,0.8-0.1
		c0.5,0,1,0,1.2-0.1c0.3-0.1,0.3-0.1,0.5,0.2c0.1,0.1,0.2,0.3,0.4,0.4C344.9,150.4,343.9,150.5,342.6,150.3z"/>
	<path id="path1397" d="M353.1,147.8c0.2-0.3,0.4-0.6,0.5-0.7c0-0.2,0.1-0.3,0.8-0.6c0.4-0.2,1.2-0.5,1.9-0.8
		c1.5-0.6,2.5-1.1,3.3-1.5c0.5-0.3,0.6-0.3,0.7-0.2c0.2,0.4-0.1,0.9-0.9,1.5c-1.4,0.9-4.5,2.4-5.8,2.7c-0.2,0.1-0.5,0.1-0.6,0.1
		C352.7,148.2,352.8,148.1,353.1,147.8z"/>
	<path id="path1395" fill="#CCA300" d="M342.9,148.1c6.1-1.1,17-6.1,22.9-10.6c1.7-1.3,2.6-2.6,2.1-3c-0.8-0.7-4-0.2-8.3,1.4
		c-4.9,1.8-9.7,4.1-13.7,6.5c-2,1.2-4.1,2.7-5.3,3.8c-0.8,0.8-1.1,1.4-0.6,1.8C340.3,148.4,341.2,148.5,342.9,148.1z"/>
	<path id="path1393" d="M342.3,147.8c-0.1-0.2,0-0.6,0.2-1.1c0.7-1.5,4.6-4,10.8-6.8c4.3-1.9,7.7-3.1,10.5-3.6
		c0.7-0.1,1.5,0,1.9,0.3c0.4,0.2,0.3,0.3-0.1,0.1c-0.5-0.2-1.2-0.1-2.6,0.3c-2.3,0.6-5.6,1.9-9.6,3.6c-1.8,0.8-5.9,3-7.7,4.1
		C344,145.7,342.4,147.2,342.3,147.8C342.3,147.9,342.3,147.9,342.3,147.8z"/>
	<path id="path1391" fill="#FFE699" d="M351.7,138.5c2.1-1.1,3.6-1.8,4.5-2.1c0.3-0.1,0.5-0.2,0.5-0.2c0,0,0-0.1-0.1-0.2
		c-0.1-0.1-0.1-0.2-0.1-0.2c0,0-1.1,0.4-1.9,0.8c-0.4,0.2-0.8,0.3-0.8,0.3c-0.2,0-0.1-0.1,0.1-0.3c0.3-0.3,0.3-0.5-0.1-0.8l-0.3-0.3
		l0.3,0c0.2,0,0.3,0.1,0.4,0.3l0.2,0.3l0.8-0.4c0.9-0.4,0.9-0.4,0.7-1.1c-0.1-0.5-0.5-0.8-0.9-0.9c-0.5-0.1-1.2,0.2-2.4,1.1
		c-1.2,0.8-1.5,1-2.3,1.3c-1.7,0.7-1.9,0.8-1.5,1.5c0.2,0.3,0.3,0.4,0.6,0.5c0.3,0.1,0.4,0.1,1-0.1l0.6-0.3l0.1-0.5
		c0.2-0.6,0.2-0.8,0.2-0.4c0,0.2,0.1,0.4,0.2,0.5c0.2,0.2,0.3,0.2,0.6,0.2c0.3,0,0.4,0,0.2,0.1c-0.1,0.1-0.5,0.3-0.8,0.5
		c-0.4,0.2-0.9,0.5-1.2,0.7c-0.3,0.2-0.6,0.4-0.8,0.5c-0.2,0.1-0.2,0.1-0.1,0.2c0.1,0.1,0.1,0.1,0.2,0.1
		C349.6,139.6,350.5,139.1,351.7,138.5z"/>
	<path id="path1389" fill="#CCA300" d="M347.6,138.6c0.5-0.1,1-0.2,1-0.2c0,0-0.1-0.2-0.2-0.4s-0.3-0.5-0.3-0.7L348,137l-0.5,0.2
		c-1.1,0.4-3.9,0.3-5.8-0.1c-2.6-0.5-4.5-1.5-7-3.5c-0.5-0.4-0.9-0.7-0.9-0.6c0,0.2,0.8,1.1,1.4,1.6c1.4,1.3,3.4,2.4,5.4,2.9
		c1.7,0.4,2.5,0.5,5.1,0.5c1.3,0,2.4,0,2.4,0.1c0,0.2-0.1,0.3-1.4,0.3c-2,0.1-4.3-0.1-5.8-0.5c-0.8-0.2-2.2-0.7-2.9-1.1
		c-0.6-0.3-0.7-0.3-0.2,0c1.2,0.6,3.4,1.4,4.9,1.7C343.4,138.9,346.3,138.8,347.6,138.6z"/>
	<path id="path1387" fill="#FFEA66" d="M347,136.5c1.1-0.2,3.4-1,4.8-1.6c0.5-0.2,2.5-1.6,3.3-2.3c2.8-2.3,4.3-5.2,4.7-8.8
		c0.2-2.2-0.2-4.6-1.2-6.5c-1.4-2.9-4.2-4.9-7.7-5.7c-2.3-0.5-4.8-0.4-7.6,0.3c-2.1,0.5-3.5,1.2-5.4,2.5c-2.5,1.7-4.3,3.9-5.1,6.3
		c-0.3,0.8-0.6,2.4-0.8,3.8c-0.1,0.6-0.1,1,0,1.6c0.5,4,2.8,7.4,6.1,9c1.4,0.7,3.7,1.3,5.4,1.5C344.1,136.8,346.2,136.7,347,136.5z"
		/>
	<path id="path1385" d="M344,136.3c0.1,0,0.1,0,0.2,0C344.2,136.4,344.1,136.4,344,136.3C343.9,136.4,343.9,136.4,344,136.3z"/>
	<path id="path1383" d="M342.7,136.1c-2.4-0.5-4.4-1.5-5.7-2.7c-1.7-1.7-2.8-4.3-3.1-7.3c-0.2-1.8,0.5-4.7,1.5-6.5
		c0.9-1.6,2.9-3.6,4.8-4.7c2.1-1.2,4.6-2,6.5-2c1.2,0,3.8,0.5,5.1,1c1.9,0.7,4.5,2.7,5.7,4.4c0.6,0.9,1.2,1.9,1.4,2.7
		c0.3,0.7,0.3,0.8,0,1.1c-0.2,0.2-0.2,0.3-0.1,1c0.1,0.9,0.1,1.7-0.1,2.1c-0.1,0.1-0.2,0.3-0.2,0.2c0,0-0.1-0.5-0.1-1.2
		c-0.2-2.7-0.8-3.9-2.7-5.8c-0.9-0.9-1.7-1.4-3.5-2.1c-2.3-0.9-3.7-1.2-5.9-1.1c-5.1,0.2-8.9,3-10.6,7.6c-0.4,1.3-0.6,2-0.6,3.4
		c0,1.1,0,1.4,0.2,2.2c0.7,3,2.3,5,5.3,6.7c1,0.6,1.6,0.8,2.5,1.1C344,136.3,343.7,136.4,342.7,136.1z"/>
	<path id="path1381" d="M350.2,134.9c-0.1-0.1-0.1-0.3-0.1-0.4c0-0.1,0.1-0.1,0.3,0c0.5,0.3,1,0,0.7-0.4c-0.2-0.2-0.6-0.3-0.6-0.1
		c0,0.1,0,0.1-0.1,0c-0.1-0.1-0.2-0.2-0.4-0.2c-0.1,0-0.3-0.1-0.5-0.2c-0.2-0.1-0.3-0.6-0.2-0.9c0.1-0.2,0-0.4-0.8-1.6
		c-0.5-0.8-0.9-1.4-0.9-1.4c0,0,0,0.6,0,1.3l0.1,1.3h-0.2c-0.3,0-0.3,0-0.4-1.6c0-0.7-0.1-1.5-0.1-1.8l0-0.5l-1,1.2
		c-0.5,0.6-1,1.1-1,1.1c0,0,0.2-0.6,0.4-1.4c0.2-0.7,0.4-1.3,0.4-1.3c0,0-0.5,0.4-1.1,1c-0.6,0.6-1.1,1-1.1,1c0,0-0.1,0-0.2-0.1
		c-0.2-0.1-0.1-0.2,0.9-1.1l1-1l-0.3,0c-0.2,0-0.8,0.1-1.4,0.1c-0.6,0.1-1.1,0.1-1,0s0.6-0.3,1.2-0.6c0.6-0.3,1.2-0.5,1.3-0.6
		c0.1-0.1-0.4-0.1-1.3-0.1c-1,0-1.5,0-1.6-0.1c-0.1-0.1-0.1-0.1,0-0.2c0,0,0.7-0.1,1.5-0.1c0.8,0,1.5-0.1,1.5-0.1
		c0,0-0.2-0.1-0.6-0.3c-0.7-0.3-1.5-0.4-2.9-0.4l-1,0l-0.1,0.4c-0.1,0.3-0.2,0.3-0.2,0.2c-0.2-0.3-0.8-0.5-1.3-0.5
		c-0.3,0-0.5,0-0.5-0.1s-0.6-0.1-1.3-0.1l-1.3-0.1v-0.6v-0.6l1.6,0.1l1.6,0.1l0.1-0.3c0.1-0.3,0.4-1,0.5-1.1c0,0,0.1,0,0.1,0.1
		c0.1,0.1,1.2,0.2,1.2,0.1c-0.1-0.2-0.9-0.6-1-0.6c-0.2,0-0.2-0.1-0.1-0.4c0.1-0.3,0.2-0.3,0.3-0.1c0.1,0.1,0.5,0.2,0.9,0.2l0.3,0
		l-0.5-0.3c-0.3-0.2-0.5-0.3-0.6-0.3c-0.1,0-0.1,0,0-0.3c0.1-0.3,0.2-0.4,0.2-0.2c0,0.1,0.3,0.4,1,0.8c0.3,0.2,0.6,0.4,0.6,0.5
		c0.1,0.2-0.2,0.4-0.5,0.3c-0.1,0-0.4-0.1-0.6-0.1l-0.4-0.1l0.5,0.4c0.3,0.2,0.5,0.4,0.5,0.5s0,0.1-0.1,0.2c-0.1,0.1-0.2,0.1-0.9,0
		c-0.4-0.1-0.9-0.1-1-0.1l-0.3,0.1l0.2,0.2c0.3,0.3,1.1,0.6,1.9,0.6c0.4,0,1,0,1.2,0.1l0.5,0l-0.4-0.2l-0.4-0.2l1.5,0.1l1.5,0.1
		l-0.1-0.2c0-0.1-0.3-0.4-0.6-0.6c-0.9-0.6-1.2-1-1.2-1.2c0-0.1,0.1-0.2,0.1-0.2c0,0,0.4,0.3,0.9,0.7s0.8,0.7,0.8,0.7
		s-0.1-0.5-0.3-1.1l-0.4-1.1l-0.3,0.2c-0.4,0.2-0.6,0.2-0.4,0.1c0.2-0.2,0.1-0.4-0.1-0.9c-0.1-0.2-0.3-0.6-0.4-0.8
		c-0.1-0.3-0.3-0.5-0.4-0.6c-0.2-0.1-0.2-0.2-0.1-0.3c0.2-0.2,0.6-0.3,0.8-0.2c0.2,0.1,0.2,0,0.2,0c-0.4-1.1-0.7-1.8-0.7-2.2
		c-0.1-0.7,0.1-0.6,0.8,0.7l0.6,1.1l0.6-0.2c0.5-0.2,0.7-0.2,0.4,0c-0.1,0.1-0.1,0.2,0.2,0.8c0.5,1,0.8,1.7,0.7,1.8
		c0,0-0.2,0.1-0.4,0.1c-0.1,0-0.3,0-0.3,0.1s0.2,0.4,0.4,0.9l0.4,0.8l0-0.5c0-1.1,0.1-1,0.6,0.4l0.4,1.3l0.1-1.6
		c0-0.9,0.1-1.7,0.1-1.7c0.1-0.2,0.3-0.1,0.4,0c0.1,0.1,0.1,0.3,0.1,1.7c0,0.9,0,1.6,0,1.6s0.5-0.7,1-1.5c0.5-0.8,1-1.5,1-1.5
		c0,0-0.2,0.8-0.6,1.8c-0.3,0.9-0.6,1.7-0.6,1.8c0,0,0.7-0.6,1.4-1.4c0.8-0.8,1.4-1.4,1.5-1.4c0.1,0,0.2,0,0.2,0.1
		c0.1,0.1-0.3,0.5-1.4,1.7c-0.8,0.9-1.4,1.5-1.3,1.5s0.9-0.3,1.7-0.5c0.8-0.3,1.6-0.5,1.6-0.5s-0.5,0.4-1.3,1c-0.7,0.5-1.3,1-1.3,1
		c0,0,2.5-0.2,3.1-0.3c0.5-0.1,0.9,0,0.9,0.2c0,0.1-0.4,0.2-1.7,0.3c-0.9,0.1-1.9,0.2-2.2,0.2l-0.5,0.1l2,0.7c1.1,0.4,2,0.7,1.8,0.7
		c-0.1,0-1.1-0.1-2.1-0.2c-1.1-0.1-1.9-0.2-1.9-0.2c0,0,2.4,2,3.7,3c0.2,0.1,0.2,0.2,0,0.4c-0.1,0.1-0.2,0.2-0.2,0.2
		c0,0-0.8-0.5-1.6-1.2c-0.8-0.6-1.5-1.2-1.5-1.1c0,0,0.2,0.5,0.6,1.1c0.3,0.6,0.7,1.3,0.9,1.6l0.3,0.6l-1.5-1.5
		c-0.8-0.8-1.5-1.5-1.5-1.4s0.3,0.9,0.6,1.8c0.3,0.9,0.6,1.7,0.6,1.7c0,0,0.2,0,0.3-0.1c0.2,0,0.4-0.1,0.5,0
		c0.2,0.1,0.4,0.5,0.4,0.6c0,0.1-0.3,0.1-0.6-0.1c-0.2-0.1-0.3-0.1-0.4-0.1c-0.1,0.1-0.1,0.1,0,0.4c0.1,0.3,0.1,0.3,0.6,0.4
		c0.7,0.1,0.9,0.3,1,0.7c0,0.3,0,0.4-0.3,0.7c-0.2,0.3-0.4,0.3-0.7,0.4C350.3,135.1,350.3,135.1,350.2,134.9z"/>
	<path id="path1379" fill="#B2B2B2" d="M348.7,129.7l-0.8-2.4l0.2-0.2c0.4-0.6,0-2.1-0.7-2.5c-0.1-0.1-0.1,0,0.1,0.5
		c0.5,0.9,0.4,1.3-0.2,1.6c-0.5,0.3-0.9,0.2-1.2-0.1c-0.1-0.2-0.3-0.4-0.4-0.6l-0.2-0.3l0,0.4c0,0.3,0,0.4,0.2,0.5
		c0.1,0.1,0.2,0.2,0.2,0.5c0,0.2,0,0.3,0.1,0.3c0.1,0,0.2,0.1,0.3,0.1c0.1,0.1,0.3,0.2,0.4,0.2c0.2,0,0.4,0.3,1.6,2.2
		c0.7,1.2,1.4,2.2,1.4,2.2S349.2,131,348.7,129.7z"/>
	<path id="path1377" fill="#B2B2B2" d="M350.1,129c-0.4-0.8-0.7-1.5-0.7-1.5c0,0,1.5,1.2,2.4,1.9c0.7,0.6,0.9,0.8,1.1,0.7
		c0,0-0.3-0.3-0.8-0.7c-0.5-0.4-1-0.8-1.1-0.9c-0.1-0.1-0.6-0.5-1.1-0.9c-0.4-0.4-0.8-0.7-0.8-0.7c0,0,0.6,0,1.4,0.1
		c0.7,0.1,1.4,0.1,1.4,0.1c0,0-0.5-0.2-1.3-0.5c-0.8-0.3-1.4-0.5-1.4-0.5c0,0,0.5-0.4,1.1-0.9c1-0.8,1.2-1,1-0.9
		c-0.3,0.1-3,0.8-3,0.8c0,0,0.1-0.3,0.2-0.7c0.4-1,0.9-2.3,0.9-2.5c0-0.1-0.8,1.2-1.3,2.1c-0.3,0.5-0.2,0.6,0.1,1.4
		c0.4,0.9,0.5,1.6,0.2,2l-0.2,0.2l0.4,0.7c0.3,0.4,0.8,1,1.3,1.4c0.5,0.4,0.9,0.8,0.9,0.8C350.8,130.4,350.5,129.7,350.1,129z"/>
	<path id="path1375" fill="#B2B2B2" d="M346,129.3c0.4-0.5,0.7-0.9,0.7-0.9c0-0.1-0.5-0.4-0.6-0.3c-0.1,0.1-0.8,2.1-0.8,2.1
		C345.4,130.1,345.7,129.8,346,129.3z"/>
	<path id="path1373" fill="#B2B2B2" d="M344.5,127.8c1.1-0.1,1.2-0.2,1.1-0.4c-0.1-0.3-0.4-0.3-1.4,0.2c-0.6,0.2-0.9,0.4-0.8,0.4
		C343.4,127.9,344,127.8,344.5,127.8z"/>
	<path id="path1371" fill="#B2B2B2" d="M345.1,126.1c-0.1-0.2-0.2-0.2-0.7-0.2l-0.6,0l0.7,0.2c0.4,0.1,0.7,0.2,0.7,0.2
		S345.2,126.2,345.1,126.1z"/>
	<path id="path1369" fill="#B2B2B2" d="M340.2,125.7c-0.1,0-0.2,0-0.3,0c-0.1,0,0,0,0.2,0S340.2,125.7,340.2,125.7z"/>
	<path id="path1367" fill="#B2B2B2" d="M345,125.5c0.1-0.1,0.2-0.4,0.1-0.5c-0.1-0.1-9.1-0.4-9.3-0.3c-0.1,0.1-0.2,0.6-0.1,0.6
		c0.1,0,6.9,0.2,8,0.2C344.3,125.5,344.9,125.5,345,125.5z"/>
	<path id="path1365" fill="#FFE699" d="M346.5,125.1c0.6-0.6-0.1-1.5-0.8-1c-0.5,0.3-0.6,0.7-0.2,1
		C345.7,125.4,346.1,125.4,346.5,125.1z"/>
	<path id="path1363" d="M345.6,125c-0.2-0.1-0.2-0.3,0-0.6c0.1-0.2,0.2-0.3,0.5-0.2c0.3,0,0.4,0,0.4,0.3
		C346.5,124.9,346,125.2,345.6,125z"/>
	<path id="path1361" fill="#B2B2B2" d="M339.1,124.4c-0.1,0-0.2,0-0.3,0s0,0,0.1,0C339.1,124.5,339.1,124.4,339.1,124.4z"/>
	<path id="path1359" fill="#FFEA66" d="M344.1,120.5c-0.1-0.3-0.3-0.7-0.4-0.7c-0.1-0.1-0.2-0.1-0.2-0.1c-0.1,0.1,0.6,1.4,0.7,1.4
		C344.2,121.1,344.2,120.8,344.1,120.5z"/>
	<path id="path1357" fill="#FFEA66" d="M344.8,119.2c-0.2-0.4-0.4-0.7-0.5-0.7c-0.1,0-0.1,0.1,0.2,0.6c0.3,0.5,0.5,0.8,0.7,0.8
		C345.1,119.9,345,119.5,344.8,119.2z"/>
	<path id="path1355" d="M344.9,134.6c-0.1-0.1-0.2-0.3-0.2-0.4c0-0.3,0.1-0.3,0.3-0.1c0.1,0.1,0.2,0.3,0.3,0.3
		c0.3,0,0.3-0.3-0.1-0.7c-0.2-0.3-0.3-0.4-0.2-0.6c0-0.1,0.2-0.3,0.3-0.4c0.2-0.1,0.3-0.1,0.6,0c0.5,0.2,0.6,0.3,0.4,0.6
		c-0.1,0.3-0.2,0.3-0.3-0.1c-0.1-0.2-0.1-0.3-0.3-0.3c-0.3,0-0.3,0.2,0,0.7c0.1,0.2,0.3,0.4,0.3,0.6c0,0.2-0.4,0.6-0.7,0.6
		C345.2,134.7,345,134.7,344.9,134.6z"/>
	<path id="path1353" d="M344,134.2c-0.2-0.1-0.2-0.1-0.1-0.4c0.1-0.2,0.1-0.5,0.1-0.7l0-0.3l-0.3,0.4c-0.2,0.2-0.3,0.5-0.3,0.6v0.2
		l-0.4-0.2c-0.3-0.2-0.3-0.2-0.2-0.3c0.1-0.1,0.1-0.3,0.1-0.5c0-0.2,0-0.4,0.1-0.5c0-0.1,0-0.1,0-0.1c-0.1,0-0.6,0.8-0.6,1
		c0,0.2,0,0.2-0.2,0.1c-0.4-0.1-0.4-0.1,0-0.6c0.2-0.3,0.5-0.6,0.6-0.8c0.2-0.2,0.3-0.3,0.5-0.3c0.2,0,0.3,0,0.3,0.3
		c0,0.2,0,0.5-0.1,0.7c-0.1,0.4,0,0.4,0.4-0.2c0.3-0.4,0.6-0.6,0.7-0.3c0,0.1,0,0.4,0,0.7c-0.1,0.3-0.1,0.8-0.1,1
		C344.4,134.3,344.4,134.4,344,134.2z"/>
	<path id="path1351" d="M338.8,131.5c-0.1-0.3-0.2-0.5-0.2-0.6s0.2-0.1,0.4-0.1c0.3,0,0.5-0.2,0.9-0.4c0.5-0.4,0.5-0.4,0.3-0.4
		c-0.5-0.1-1.3,0.1-1.5,0.3c-0.2,0.2-0.3,0.1-0.4-0.3c-0.1-0.4-0.1-0.4,0.1-0.4c0.1,0,0.5-0.2,0.9-0.5l0.7-0.5h-0.4
		c-0.5,0-1.3,0.2-1.4,0.3c-0.1,0.1-0.2,0.1-0.3-0.3c-0.1-0.3-0.2-0.4-0.1-0.5s0.1-0.1,0.1,0c0.1,0.1,0.8,0.1,2,0c0.9-0.1,1,0,1,0.3
		c0,0.2-0.4,0.6-1,1l-0.4,0.2l0.9-0.1c0.7,0,0.9,0,1,0.1c0.2,0.2,0,0.5-0.8,1c-0.7,0.5-1.2,0.9-1.4,1.3
		C339,132,339,131.9,338.8,131.5z"/>
	<path id="path1349" d="M354.9,129.7c-0.2-0.2-0.2-0.3,0-0.3c0.2,0,0.4-0.3,0.4-0.4c0,0-0.1-0.1-0.2-0.2c-0.2-0.1-0.2-0.1-0.4,0
		c-0.1,0.1-0.1,0.2-0.1,0.3c0.1,0.2-0.1,0.2-0.4,0L354,129l0.2-0.1c0.2-0.1,0.4-0.3,0.3-0.4c0,0-0.1-0.1-0.3-0.2
		c-0.2-0.1-0.2-0.1-0.3,0c-0.1,0.1-0.1,0.3-0.1,0.5c0,0.2,0,0.3-0.1,0.3c-0.1,0-0.2,0-0.2,0c-0.1,0-0.1-0.1-0.1-0.2
		c0-0.2,0.6-1.4,0.7-1.4c0,0,0.1,0.1,0.2,0.2c0.1,0.2,1.1,0.8,1.4,0.8c0.1,0,0.2,0,0.2,0.1c0,0.1-0.6,1.3-0.7,1.3
		C355.1,129.9,355,129.8,354.9,129.7z"/>
	<path id="path1347" d="M355.7,128.2c-0.1-0.1-0.1-0.3,0.1-0.3c0.2,0,0.4-0.3,0.3-0.5c-0.1-0.1-0.3,0-0.6,0.1c-0.7,0.3-0.9,0.3-1,0
		c-0.1-0.3-0.1-0.8,0.2-1.1c0.2-0.2,0.2-0.2,0.4-0.1c0.3,0.1,0.3,0.3,0,0.3c-0.3,0-0.4,0.2-0.4,0.4c0.1,0.2,0.1,0.2,0.7,0
		c0.5-0.3,0.7-0.3,0.9,0c0.1,0.2,0.1,0.8,0,1C356.1,128.2,355.8,128.3,355.7,128.2z"/>
	<path id="path1345" d="M353.7,122.8c-0.2-0.5-0.3-1-0.3-1c0,0,0.1,0,0.2,0c0.2,0.1,0.7,0,1.6-0.4c0.5-0.2,0.7-0.3,0.7-0.5
		c0-0.1,0.1-0.2,0.1-0.2c0.1,0,0.6,1.1,0.7,1.6c0.1,0.4,0.1,0.4-0.3,0.6c-0.2,0.1-0.3,0.1-0.4,0c-0.1-0.1-0.1-0.1,0.1-0.2
		c0.2-0.1,0.2-0.6-0.1-1c0-0.1-0.6,0.2-0.7,0.3c-0.1,0.2,0,0.5,0.3,0.6c0.1,0,0.2,0.1,0.2,0.2c0,0.2-0.4,0.4-0.7,0.4
		c-0.3,0-0.4-0.1-0.2-0.2c0.1-0.1,0-0.6-0.1-0.7c-0.1-0.1-0.7,0.1-0.8,0.2c-0.1,0.1,0.2,0.8,0.4,0.8c0.1,0,0.2,0.1,0.3,0.1
		c0.1,0.1,0.2,0.1,0,0.2c-0.1,0-0.3,0.1-0.4,0.1l-0.3,0L353.7,122.8z"/>
	<path id="path1343" d="M351.1,120.6c-0.4-0.1-0.7-0.3-0.7-0.3c0,0,0-0.1,0.1-0.2c0.2-0.2,0.6-1.3,0.6-1.5c0-0.1,0-0.2,0.1-0.2
		c1.4,0.4,1.4,0.4,1.2,0.9c-0.1,0.2-0.1,0.2-0.2-0.1c-0.1-0.3-0.5-0.4-0.7-0.2c-0.1,0.1-0.1,0.2-0.1,0.3c0,0.1,0.4,0.3,0.5,0.2
		c0.1-0.2,0.2,0,0.2,0.2c-0.1,0.4-0.2,0.4-0.4,0.2c-0.3-0.3-0.4-0.3-0.4,0c-0.1,0.5-0.1,0.5,0.4,0.5c0.4-0.1,0.5,0,0.4,0.1
		C351.9,120.8,351.8,120.8,351.1,120.6z"/>
	<path id="path1341" d="M349.7,120c-0.2-0.3-0.3-0.5-0.4-1.1l-0.1-0.6l-0.2,0.4c-0.1,0.2-0.2,0.5-0.2,0.7c0,0.3-0.1,0.3-0.4,0.2
		c-0.2-0.1-0.3-0.2-0.1-0.2c0.2,0,0.5-0.9,0.5-1.4c0-0.2,0-0.4,0.1-0.4s0.2,0.1,0.4,0.3c0.2,0.2,0.3,0.4,0.4,0.9l0.1,0.6l0.2-0.3
		c0.1-0.2,0.2-0.5,0.2-0.7c0-0.4,0-0.4,0.4-0.2c0.3,0.1,0.4,0.3,0.1,0.3c-0.2,0-0.3,0.3-0.6,1.1c-0.1,0.3-0.2,0.6-0.3,0.6
		C349.9,120.1,349.8,120.1,349.7,120z"/>
	<path id="path1339" d="M342.5,118.4c-0.1-0.1-0.1-0.4,0.1-0.6c0.1-0.1,0.2-0.1,0.3,0.1c0.2,0.2,0.2,0.3,0,0.5
		C342.7,118.5,342.7,118.5,342.5,118.4z"/>
	<path id="path1337" d="M344,117.6c-0.1-0.2,0-0.4,0.2-0.4c0.3,0,0.4,0.2,0.3,0.4C344.3,117.7,344,117.7,344,117.6z"/>
	<path id="path1335" fill="#CCA300" d="M357.4,134.1c1.4-1.5,2.1-2.5,2.7-3.7c1.2-2.5,1.6-5.6,1-8.5c-0.2-0.9-0.6-2.2-0.8-2.6
		l-0.1-0.2l0,0.2c0.3,1.6,0.4,2.4,0.4,3.8c0,0.9,0,1.7-0.1,2.1c-0.3,1.7-1.1,3.5-2.2,5.2c-0.6,0.8-1.8,2.1-2.5,2.6
		c-0.4,0.3-0.5,0.3-0.3,0.5c0.1,0.1,0.3,0.4,0.5,0.7c0.2,0.3,0.4,0.6,0.5,0.6C356.7,134.7,357,134.4,357.4,134.1z"/>
</g>
</svg>
