<?xml version="1.0" encoding="utf-8"?>
<!-- Generator: Adobe Illustrator 18.1.1, SVG Export Plug-In . SVG Version: 6.00 Build 0)  -->
<svg version="1.1"
	 id="svg2" xmlns:sodipodi="http://sodipodi.sourceforge.net/DTD/sodipodi-0.dtd" xmlns:cc="http://creativecommons.org/ns#" xmlns:dc="http://purl.org/dc/elements/1.1/" xmlns:rdf="http://www.w3.org/1999/02/22-rdf-syntax-ns#" xmlns:svg="http://www.w3.org/2000/svg" xmlns:inkscape="http://www.inkscape.org/namespaces/inkscape" sodipodi:docname="contacts.svg" sodipodi:version="0.32" inkscape:output_extension="org.inkscape.output.svg.inkscape" inkscape:version="0.46"
	 xmlns="http://www.w3.org/2000/svg" xmlns:xlink="http://www.w3.org/1999/xlink" x="0px" y="0px" viewBox="26.8 70.6 48.9 49"
	 enable-background="new 26.8 70.6 48.9 49" xml:space="preserve">
<filter  id="filter4698" inkscape:collect="always">
	<feGaussianBlur  id="feGaussianBlur4700" stdDeviation="0.63473305" inkscape:collect="always"></feGaussianBlur>
</filter>
<filter  height="1.2511515" width="1.2297967" id="filter4668" x="-0.11489835" y="-0.12557574" inkscape:collect="always">
	<feGaussianBlur  id="feGaussianBlur4670" stdDeviation="1.7442389" inkscape:collect="always"></feGaussianBlur>
</filter>
<filter  id="filter4634" inkscape:collect="always">
	<feGaussianBlur  id="feGaussianBlur4636" stdDeviation="1.3125892" inkscape:collect="always"></feGaussianBlur>
</filter>
<filter  height="1.2632911" width="1.2204947" id="filter4536-4" x="-0.11024735" y="-0.13164558" color-interpolation-filters="sRGB" inkscape:collect="always">
	<feGaussianBlur  id="feGaussianBlur4538-9" stdDeviation="2.3214286" inkscape:collect="always"></feGaussianBlur>
</filter>
<filter  height="1.2632911" width="1.2204947" id="filter4536" x="-0.11024735" y="-0.13164557" inkscape:collect="always">
	<feGaussianBlur  id="feGaussianBlur4538" stdDeviation="2.3214286" inkscape:collect="always"></feGaussianBlur>
</filter>
<filter  height="1.2125523" width="1.1221384" id="filter4474-3" x="-0.061069202" y="-0.10627616" color-interpolation-filters="sRGB" inkscape:collect="always">
	<feGaussianBlur  id="feGaussianBlur4476-9" stdDeviation="1.217749" inkscape:collect="always"></feGaussianBlur>
</filter>
<filter  height="1.2125523" width="1.1221384" id="filter4474" x="-0.061069203" y="-0.10627616" inkscape:collect="always">
	<feGaussianBlur  id="feGaussianBlur4476" stdDeviation="1.217749" inkscape:collect="always"></feGaussianBlur>
</filter>
<filter  id="filter4370-0" color-interpolation-filters="sRGB" inkscape:collect="always">
	<feGaussianBlur  id="feGaussianBlur4372-2" stdDeviation="0.73754069" inkscape:collect="always"></feGaussianBlur>
</filter>
<filter  id="filter4370" inkscape:collect="always">
	<feGaussianBlur  id="feGaussianBlur4372" stdDeviation="0.73754069" inkscape:collect="always"></feGaussianBlur>
</filter>
<filter  id="filter3608" inkscape:collect="always">
	<feGaussianBlur  id="feGaussianBlur3610" stdDeviation="1.4309463" inkscape:collect="always"></feGaussianBlur>
</filter>
<defs>
	
	
		<inkscape:perspective  id="perspective263" inkscape:vp_y="0 : 1000 : 0" inkscape:vp_z="100 : 50 : 1" inkscape:vp_x="0 : 50 : 1" sodipodi:type="inkscape:persp3d" inkscape:persp3d-origin="50 : 33.333333 : 1">
		</inkscape:perspective>
</defs>
<sodipodi:namedview  id="base" bordercolor="#666666" inkscape:zoom="1" pagecolor="#ffffff" inkscape:cy="52.021703" showgrid="true" inkscape:cx="60.402916" borderopacity="1.0" inkscape:document-units="px" inkscape:window-maximized="1" inkscape:snap-grids="false" inkscape:window-width="1024" inkscape:window-height="706" inkscape:pageshadow="2" inkscape:pageopacity="0.0" inkscape:window-x="-8" inkscape:window-y="-8" inkscape:current-layer="layer1">
	<inkscape:grid  type="xygrid" id="grid2987" empspacing="5" enabled="true" visible="false" snapvisiblegridlinesonly="true">
		</inkscape:grid>
</sodipodi:namedview>
<g id="layer1" transform="translate(0,-952.36218)" inkscape:label="Layer 1" inkscape:groupmode="layer">
	<g id="g3612" transform="translate(-5.25,26.486284)">
		<g id="path2636" sodipodi:nodetypes="zzzcczz" inkscape:connector-curvature="0" filter="url(#filter3608)">
			<path fill="#091013" d="M46.4,998.6c1.3-0.1,26.6-1.5,29.8-1.6c3.3-0.1,3.3,0.4,3.2,3.8c-0.1,3.5-1.7,29-1.7,29l-32-1.3
				c0,0-1.2-26.6-1.2-27.9C44.6,999.3,45.1,998.7,46.4,998.6L46.4,998.6z"/>
		</g>
		
			<linearGradient id="rect4805_1_" gradientUnits="userSpaceOnUse" x1="60.5143" y1="1010.5453" x2="33.33" y2="1006.7725" gradientTransform="matrix(1.6088 0 0 1.6088 -8.0402 -609.0787)">
			<stop  offset="0" style="stop-color:#A1B7E1"/>
			<stop  offset="1" style="stop-color:#2B5F8B"/>
		</linearGradient>
		
			<path id="rect4805" sodipodi:nodetypes="zzzcczz" inkscape:connector-curvature="0" fill="#ABC8D4" stroke="url(#rect4805_1_)" stroke-width="1.1172" d="
			M46.7,998.7c1.3-0.1,26.6-1.5,29.8-1.6c3.3-0.1,3.3,0.4,3.2,3.8c-0.1,3.5-1.7,29-1.7,29l-32-1.3c0,0-1.2-26.6-1.2-27.9
			C44.9,999.4,45.4,998.8,46.7,998.7L46.7,998.7z"/>
		
			<path id="rect4805-6" sodipodi:nodetypes="ccccc" inkscape:connector-curvature="0" fill="#FFFFFF" stroke="#848484" stroke-width="1.1172" stroke-linejoin="round" d="
			M46.4,1004.3l32-1.2l-1.1,24.7l-30.3-1.3L46.4,1004.3z"/>
		<g id="g5058" transform="matrix(-0.7426517,0,0,0.7426517,119.74355,249.02187)" opacity="0.2741">
			<g id="path4192-5-5" sodipodi:nodetypes="ccccc" inkscape:connector-curvature="0" filter="url(#filter4536-4)">
				<polygon fill="#030303" points="66.1,1021.2 68.3,1043.4 92.6,1037.5 92.9,1022.3 				"/>
			</g>
			
				<linearGradient id="path4192-2_1_" gradientUnits="userSpaceOnUse" x1="-151.3633" y1="-283.3657" x2="-172.8812" y2="-287.1457" gradientTransform="matrix(0.7943 0 0 0.7943 212.9904 1253.3315)">
				<stop  offset="0" style="stop-color:#DEDEDE"/>
				<stop  offset="1" style="stop-color:#FFFFFF"/>
			</linearGradient>
			
				<linearGradient id="path4192-2_2_" gradientUnits="userSpaceOnUse" x1="-143.7734" y1="-286.9399" x2="-178.5381" y2="-294.9107" gradientTransform="matrix(0.7943 0 0 0.7943 212.9904 1253.3315)">
				<stop  offset="0" style="stop-color:#606060"/>
				<stop  offset="1" style="stop-color:#000000;stop-opacity:0"/>
			</linearGradient>
			
				<path id="path4192-2" inkscape:connector-curvature="0" fill="url(#path4192-2_1_)" stroke="url(#path4192-2_2_)" stroke-width="1.9452" stroke-linecap="round" stroke-linejoin="bevel" d="
				M65,1021.1l0.7,23.9l27.3-7.6l0.5-16.2L65,1021.1z"/>
			<g id="path4196-3-3" sodipodi:nodetypes="cccc" inkscape:connector-curvature="0" filter="url(#filter4474-3)">
				<polygon fill="#030303" points="68.5,1043.3 81.5,1030.2 92,1036.6 				"/>
			</g>
			
				<linearGradient id="path4196-8_1_" gradientUnits="userSpaceOnUse" x1="-151.3296" y1="-278.1947" x2="-175.5032" y2="-283.7443" gradientTransform="matrix(0.7943 0 0 0.7943 213.5046 1253.5886)">
				<stop  offset="0" style="stop-color:#525252"/>
				<stop  offset="1" style="stop-color:#000000;stop-opacity:0"/>
			</linearGradient>
			
				<path id="path4196-8" sodipodi:nodetypes="cccc" inkscape:connector-curvature="0" fill="#F6F6F6" stroke="url(#path4196-8_1_)" stroke-width="1.9452" stroke-linecap="round" stroke-linejoin="bevel" d="
				M65.9,1044.9l14.5-15.5l12.5,8L65.9,1044.9z"/>
			<g id="path4194-5-2" sodipodi:nodetypes="cccc" inkscape:connector-curvature="0" filter="url(#filter4370-0)">
				<polygon points="66.6,1021.6 80.9,1032.7 92.9,1022.3 				"/>
				<polygon fill="none" stroke="#000000" stroke-width="1.9452" stroke-linecap="round" stroke-linejoin="bevel" points="
					66.6,1021.6 80.9,1032.7 92.9,1022.3 				"/>
			</g>
			
				<linearGradient id="path4194-9_1_" gradientUnits="userSpaceOnUse" x1="-142.0562" y1="-293.0724" x2="-171.5068" y2="-300.0845" gradientTransform="matrix(0.7943 0 0 0.7943 213.2476 1253.0745)">
				<stop  offset="0" style="stop-color:#5F5F5F"/>
				<stop  offset="1" style="stop-color:#E3E3E3"/>
			</linearGradient>
			
				<path id="path4194-9" sodipodi:nodetypes="cccc" inkscape:connector-curvature="0" fill="#F5F5F5" stroke="url(#path4194-9_1_)" stroke-width="1.9452" stroke-linecap="round" stroke-linejoin="bevel" d="
				M65.1,1021.1l15.3,11.6l12.9-11.5L65.1,1021.1z"/>
		</g>
		
			<linearGradient id="path3416_1_" gradientUnits="userSpaceOnUse" x1="18.2501" y1="947.6376" x2="18.2501" y2="945.4905" gradientTransform="matrix(1.6088 0 0 1.6088 32.994 -523.7601)">
			<stop  offset="0" style="stop-color:#B4C3F1;stop-opacity:0"/>
			<stop  offset="1" style="stop-color:#FFFFFF"/>
		</linearGradient>
		<path id="path3416" sodipodi:nodetypes="czcczzc" inkscape:connector-curvature="0" fill="url(#path3416_1_)" d="M76.3,997.5
			c3.3-0.1,3,0.3,2.9,3.7c-0.1,3.5-0.1,4.7-0.1,4.7l-33.5-0.6c0,0-0.2-3.1-0.3-4.4c-0.1-1.3,0.2-1.5,1.2-1.7
			C47.6,999,66.5,998,76.3,997.5z"/>
		
			<linearGradient id="path3442_1_" gradientUnits="userSpaceOnUse" x1="51.8529" y1="63.233" x2="51.8529" y2="62.1441" gradientTransform="matrix(1.6088 0 0 1.165 -13.3219 925.4467)">
			<stop  offset="0" style="stop-color:#B4C3F1;stop-opacity:0"/>
			<stop  offset="1" style="stop-color:#FFFFFF"/>
		</linearGradient>
		
			<linearGradient id="path3442_2_" gradientUnits="userSpaceOnUse" x1="52.0251" y1="999.859" x2="51.9063" y2="998.2592" gradientTransform="matrix(1.6088 0 0 1.6088 -13.5251 -609.2819)">
			<stop  offset="0" style="stop-color:#A1B7E1"/>
			<stop  offset="1" style="stop-color:#2B5F8B"/>
		</linearGradient>
		
			<path id="path3442" sodipodi:nodetypes="ccccc" fill="url(#path3442_1_)" stroke="url(#path3442_2_)" stroke-width="1.1172" stroke-linejoin="round" d="
			M68.9,997.5l0.1,1.7l2.3-0.1l-0.1-1.7L68.9,997.5z"/>
		
			<linearGradient id="path3472_1_" gradientUnits="userSpaceOnUse" x1="49.5016" y1="63.3264" x2="49.5016" y2="62.2374" gradientTransform="matrix(1.6088 0 0 1.165 -6.9687 925.2678)">
			<stop  offset="0" style="stop-color:#B4C3F1;stop-opacity:0"/>
			<stop  offset="1" style="stop-color:#FFFFFF"/>
		</linearGradient>
		
			<linearGradient id="path3472_2_" gradientUnits="userSpaceOnUse" x1="49.6445" y1="999.9354" x2="49.5258" y2="998.3369" gradientTransform="matrix(1.6088 0 0 1.6088 -7.1719 -609.4607)">
			<stop  offset="0" style="stop-color:#A1B7E1"/>
			<stop  offset="1" style="stop-color:#2B5F8B"/>
		</linearGradient>
		
			<path id="path3472" sodipodi:nodetypes="ccccc" fill="url(#path3472_1_)" stroke="url(#path3472_2_)" stroke-width="1.1172" stroke-linejoin="round" d="
			M71.4,997.4v1.7l2.5-0.1l-0.1-1.7L71.4,997.4z"/>
		
			<linearGradient id="path3478_1_" gradientUnits="userSpaceOnUse" x1="46.1857" y1="63.4763" x2="46.1857" y2="62.3873" gradientTransform="matrix(2.5262 0 0 1.165 -41.1333 924.9805)">
			<stop  offset="0" style="stop-color:#F70000"/>
			<stop  offset="1" style="stop-color:#E3B0B0"/>
		</linearGradient>
		
			<linearGradient id="path3478_2_" gradientUnits="userSpaceOnUse" x1="46.3831" y1="1000.064" x2="46.2639" y2="998.4587" gradientTransform="matrix(2.5262 0 0 1.6088 -41.4522 -609.7481)">
			<stop  offset="0" style="stop-color:#A1B7E1"/>
			<stop  offset="1" style="stop-color:#2B5F8B"/>
		</linearGradient>
		
			<path id="path3478" sodipodi:nodetypes="ccccc" fill="url(#path3478_1_)" stroke="url(#path3478_2_)" stroke-width="1.1172" stroke-linejoin="round" d="
			M73.8,997.3l0.1,1.7l3.3-0.2v-1.7L73.8,997.3z"/>
		<g id="g3546" transform="matrix(1.1172116,0,0,1.1172116,-3.5882382,-137.28379)">
			<g id="g3579" transform="translate(45.5,31.25)">
				<path id="text3490" opacity="0.7992" enable-background="new    " d="M14.9,1002.8L14.9,1002.8c-0.5,0.5-1,1-1.5,1.3
					c-0.5,0.3-1,0.4-1.5,0.4c-0.4,0-0.7-0.2-1-0.4c-0.3-0.2-0.4-0.5-0.5-0.9c-0.1-0.4-0.1-0.8-0.1-1.2c0-0.5,0.2-0.9,0.3-1.4
					c0.2-0.5,0.4-0.9,0.7-1.3c0.3-0.4,0.6-0.8,1-1.1c0.4-0.3,0.8-0.5,1.3-0.7c0.5-0.2,1-0.2,1.5-0.2c0.3,0,0.6,0.1,0.9,0.2
					c0.3,0.1,0.5,0.2,0.8,0.4l0.8-0.4l0.9,0.3l-1.4,4.2c-0.1,0.3-0.2,0.5-0.2,0.7c0,0.1-0.1,0.3-0.1,0.4c0,0.3,0,0.5,0.1,0.6
					s0.3,0.2,0.5,0.2c0.4,0,0.7-0.1,1.1-0.3c0.3-0.3,0.6-0.7,0.8-1.2c0.2-0.5,0.4-1.1,0.4-1.7c0.1-0.8,0-1.5-0.1-2.2
					c-0.2-0.6-0.4-1.1-0.8-1.6c-0.4-0.4-0.8-0.8-1.4-1c-0.5-0.2-1.2-0.4-1.9-0.5c-1.2-0.1-2.3,0-3.3,0.4c-1,0.4-1.8,1.1-2.4,2
					s-1,2-1.1,3.2c-0.1,1,0,1.9,0.3,2.7c0.3,0.8,0.8,1.4,1.5,1.8c0.7,0.4,1.5,0.7,2.6,0.8c0.5,0.1,1,0.1,1.4,0c0.5,0,1-0.1,1.5-0.2
					l0.2,1.1c-0.5,0.1-1,0.2-1.6,0.2c-0.6,0-1.2,0-1.8,0c-1.5-0.2-2.8-0.5-3.7-1.1c-1-0.6-1.6-1.3-2-2.3c-0.4-0.9-0.5-2-0.4-3.3
					c0.1-1,0.4-1.9,0.8-2.7c0.4-0.8,1.1-1.6,1.8-2.2c0.8-0.6,1.7-1,2.7-1.3c1-0.3,2.2-0.3,3.4-0.2c0.8,0.1,1.5,0.2,2.1,0.4
					c0.6,0.2,1.1,0.5,1.6,0.7c0.5,0.3,0.8,0.6,1.1,1c0.3,0.4,0.5,0.8,0.7,1.2c0.2,0.4,0.3,0.9,0.3,1.3c0.1,0.5,0.1,0.9,0,1.4
					c-0.1,1-0.3,1.8-0.7,2.5s-0.9,1.3-1.6,1.6c-0.6,0.3-1.4,0.5-2.1,0.4c-0.3,0-0.6-0.1-0.8-0.2c-0.2-0.1-0.5-0.2-0.6-0.4
					c-0.2-0.2-0.3-0.4-0.4-0.6C14.9,1003.6,14.9,1003.2,14.9,1002.8L14.9,1002.8z M15.7,999.1c0-0.3,0-0.5-0.1-0.7
					c-0.1-0.2-0.3-0.2-0.6-0.3c-0.2,0-0.4,0-0.5,0c-0.2,0-0.4,0.1-0.5,0.3c-0.2,0.1-0.4,0.3-0.6,0.5c-0.2,0.2-0.4,0.5-0.5,0.8
					c-0.2,0.3-0.3,0.7-0.4,1.1c-0.1,0.4-0.2,0.8-0.2,1.1c0,0.4,0,0.7,0.1,0.9c0.1,0.2,0.2,0.3,0.5,0.3c0.2,0,0.5,0,0.7-0.2
					c0.2-0.1,0.5-0.3,0.8-0.7c0.3-0.3,0.5-0.6,0.7-0.9c0.2-0.3,0.3-0.7,0.5-1.1c0.1-0.3,0.2-0.6,0.2-0.8
					C15.7,999.4,15.7,999.3,15.7,999.1L15.7,999.1z"/>
				
					<text transform="matrix(0.9121 9.461778e-002 -9.041966e-002 0.8905 4.563 1004.6824)" font-family="'Cambria-Bold'" font-size="19.9383">@</text>
				
					<text transform="matrix(0.9121 9.461778e-002 -9.041966e-002 0.8905 4.563 1004.6824)" fill="none" stroke="#000000" font-family="'Cambria-Bold'" font-size="19.9383">@</text>
			</g>
		</g>
	</g>
	<g id="g4718" transform="matrix(0.8663183,0,0,0.8663183,35.685708,176.77145)">
		<g id="path4192-9-2" sodipodi:nodetypes="ccccc" inkscape:connector-curvature="0" filter="url(#filter4634)">
			<polygon fill="#030303" points="-9,1001 -8.9,1023.2 20.2,1021.2 20.8,1003.2 			"/>
		</g>
		
			<linearGradient id="path4192-9_1_" gradientUnits="userSpaceOnUse" x1="-77.6613" y1="-119.7234" x2="-99.1514" y2="-123.4417" gradientTransform="matrix(1.0696 0.1546 -0.1546 1.0696 82.0642 1156.6084)">
			<stop  offset="0" style="stop-color:#D8D8D8"/>
			<stop  offset="1" style="stop-color:#FFFFFF"/>
		</linearGradient>
		
			<linearGradient id="path4192-9_2_" gradientUnits="userSpaceOnUse" x1="-81.8184" y1="1150.7029" x2="-105.2705" y2="1142.1021" gradientTransform="matrix(1.0807 0 0 1.0807 115.3622 -223.077)">
			<stop  offset="0" style="stop-color:#5F5F5F"/>
			<stop  offset="1" style="stop-color:#E3E3E3"/>
		</linearGradient>
		
			<path id="path4192-9" sodipodi:nodetypes="ccccc" inkscape:connector-curvature="0" fill="url(#path4192-9_1_)" stroke="url(#path4192-9_2_)" stroke-linecap="round" stroke-linejoin="bevel" d="
			M-9.7,1000.4l0.1,22.2l29.1-2l0.6-18L-9.7,1000.4z"/>
		<g id="path4192-5" sodipodi:nodetypes="ccccc" inkscape:connector-curvature="0" filter="url(#filter4536)">
			<polygon fill="#030303" points="-3.9,1006.9 -1.6,1029 22.7,1023 23,1008 			"/>
		</g>
		
			<linearGradient id="path4192_1_" gradientUnits="userSpaceOnUse" x1="-85.3765" y1="-117.8804" x2="-106.8945" y2="-121.6603" gradientTransform="matrix(1.0807 0 0 1.0807 116.4531 1148.6892)">
			<stop  offset="0" style="stop-color:#DEDEDE"/>
			<stop  offset="1" style="stop-color:#FFFFFF"/>
		</linearGradient>
		
			<linearGradient id="path4192_2_" gradientUnits="userSpaceOnUse" x1="-78.6855" y1="-115.6576" x2="-112.8066" y2="-123.4808" gradientTransform="matrix(1.0807 0 0 1.0807 116.4531 1148.6892)">
			<stop  offset="0" style="stop-color:#606060"/>
			<stop  offset="1" style="stop-color:#000000;stop-opacity:0"/>
		</linearGradient>
		
			<path id="path4192" inkscape:connector-curvature="0" fill="url(#path4192_1_)" stroke="url(#path4192_2_)" stroke-linecap="round" stroke-linejoin="bevel" d="
			M-4.9,1006.8l0.7,23.9l27.3-7.6l0.5-16.2L-4.9,1006.8z"/>
		<g id="path4196-3" sodipodi:nodetypes="cccc" inkscape:connector-curvature="0" filter="url(#filter4474)">
			<polygon fill="#030303" points="-1.4,1028.9 11.6,1015.8 22.1,1022.2 			"/>
		</g>
		
			<linearGradient id="path4196_1_" gradientUnits="userSpaceOnUse" x1="-84.545" y1="-112.0148" x2="-108.5392" y2="-117.5233" gradientTransform="matrix(1.0807 0 0 1.0807 116.9674 1148.9464)">
			<stop  offset="0" style="stop-color:#525252"/>
			<stop  offset="1" style="stop-color:#000000;stop-opacity:0"/>
		</linearGradient>
		
			<path id="path4196" sodipodi:nodetypes="cccc" inkscape:connector-curvature="0" fill="#F6F6F6" stroke="url(#path4196_1_)" stroke-linecap="round" stroke-linejoin="bevel" d="
			M-4,1030.5l14.5-15.5l12.5,8L-4,1030.5z"/>
		<g id="path4194-5" sodipodi:nodetypes="cccc" inkscape:connector-curvature="0" filter="url(#filter4370)">
			<polygon points="-3.3,1007.2 11,1018.3 23,1007.9 			"/>
			<polygon fill="none" stroke="#000000" stroke-linecap="round" stroke-linejoin="bevel" points="-3.3,1007.2 11,1018.3 23,1007.9 
							"/>
		</g>
		
			<linearGradient id="path4194_1_" gradientUnits="userSpaceOnUse" x1="-77.8315" y1="-122.2603" x2="-106.7497" y2="-129.1455" gradientTransform="matrix(1.0807 0 0 1.0807 116.7103 1148.432)">
			<stop  offset="0" style="stop-color:#5F5F5F"/>
			<stop  offset="1" style="stop-color:#E3E3E3"/>
		</linearGradient>
		
			<path id="path4194" sodipodi:nodetypes="cccc" inkscape:connector-curvature="0" fill="#F5F5F5" stroke="url(#path4194_1_)" stroke-linecap="round" stroke-linejoin="bevel" d="
			M-4.8,1006.8l15.3,11.6l12.9-11.5L-4.8,1006.8z"/>
	</g>
	<g id="g4728" transform="translate(7.6428572,0.25)">
		<g id="path3826-7" sodipodi:nodetypes="czccccccccc" inkscape:connector-curvature="0" filter="url(#filter4698)">
			<path d="M43.4,1050.2c3.7-1.7,17.3-1.3,20.6,0c3.2,1.3,3.7,3.7,3.7,5.6v1.9c0.1,1.2-7.5,1.3-7.5,0c-0.9-0.7,0-3-1.9-4.1
				c-2.6,0-5.9,0-9.4,0c-1.5,1.1-1,3-1.9,4.1c0.2,1.3-7.4,1.5-7.5,0v-1.9C40.3,1053.2,40,1051.8,43.4,1050.2z"/>
			<path fill="none" stroke="#000000" stroke-width="0.6624" d="M43.4,1050.2c3.7-1.7,17.3-1.3,20.6,0c3.2,1.3,3.7,3.7,3.7,5.6v1.9
				c0.1,1.2-7.5,1.3-7.5,0c-0.9-0.7,0-3-1.9-4.1c-2.6,0-5.9,0-9.4,0c-1.5,1.1-1,3-1.9,4.1c0.2,1.3-7.4,1.5-7.5,0v-1.9
				C40.3,1053.2,40,1051.8,43.4,1050.2z"/>
		</g>
		<g id="path2985-6" sodipodi:nodetypes="ccccccccccccccc" inkscape:connector-curvature="0" filter="url(#filter4668)">
			<path d="M43.6,1069.7v-3.7l3.7-10.5l2.6-1.5v-2.2h1.5v1.5h5.2v-1.5h1.5v2.2l2.2,1.5l3.7,10.5v3.7
				C58.4,1070.6,52,1071,43.6,1069.7z"/>
		</g>
		
			<linearGradient id="path3826_1_" gradientUnits="userSpaceOnUse" x1="26.064" y1="1032.21" x2="4.5415" y2="1022.4161" gradientTransform="matrix(1.44 0 0 1.44 34.6143 -423.2894)">
			<stop  offset="0" style="stop-color:#000000"/>
			<stop  offset="1" style="stop-color:#AA0F0F"/>
		</linearGradient>
		
			<path id="path3826" sodipodi:nodetypes="czccccccccc" inkscape:connector-curvature="0" fill="#D40000" stroke="url(#path3826_1_)" stroke-width="0.6624" d="
			M43.4,1049.9c3.7-1.7,17.3-1.3,20.6,0s3.7,3.7,3.7,5.6v1.9c0.1,1.2-7.5,1.3-7.5,0c-0.9-0.7,0-3-1.9-4.1c-2.6,0-5.9,0-9.4,0
			c-1.5,1.1-1,3-1.9,4.1c0.2,1.3-7.4,1.5-7.5,0v-1.9C40.3,1053,40,1051.6,43.4,1049.9z"/>
		
			<radialGradient id="rect3757-8_1_" cx="8.2395" cy="1053.1438" r="3.3128" gradientTransform="matrix(2.7842 -5.292683e-002 1.161320e-002 0.611 18.5805 410.1718)" gradientUnits="userSpaceOnUse">
			<stop  offset="0" style="stop-color:#000000"/>
			<stop  offset="1" style="stop-color:#D40000;stop-opacity:0"/>
		</radialGradient>
		<path id="rect3757-8" sodipodi:nodetypes="ccccc" inkscape:connector-curvature="0" fill="url(#rect3757-8_1_)" d="M58.4,1053.1
			h-9.6c-2.1,4.7-0.8-3.8,0-1.5h9.6C60.4,1051.1,61.2,1056.9,58.4,1053.1L58.4,1053.1z"/>
		
			<linearGradient id="path2985_1_" gradientUnits="userSpaceOnUse" x1="25.342" y1="1036.1207" x2="3.9677" y2="1028.4733" gradientTransform="matrix(1.44 0 0 1.44 34.6143 -423.2894)">
			<stop  offset="0" style="stop-color:#000000"/>
			<stop  offset="1" style="stop-color:#AA0F0F"/>
		</linearGradient>
		
			<path id="path2985" sodipodi:nodetypes="ccccccccccccccc" inkscape:connector-curvature="0" fill="#D40000" stroke="url(#path2985_1_)" stroke-width="0.6624" d="
			M43.4,1070.4v-3.7l3.7-10.5l2.6-1.5v-2.2h1.5v1.5h5.2v-1.5H58v2.2l2.2,1.5l3.7,10.5v3.7C58.2,1071.4,51.9,1071.8,43.4,1070.4
			L43.4,1070.4z"/>
		
			<linearGradient id="rect3757_1_" gradientUnits="userSpaceOnUse" x1="5.8481" y1="64.7311" x2="5.7491" y2="67.7523" gradientTransform="matrix(0.9539 0 0 0.9539 48.3289 992.3104)">
			<stop  offset="0" style="stop-color:#000000"/>
			<stop  offset="1" style="stop-color:#D40000;stop-opacity:0"/>
		</linearGradient>
		<path id="rect3757" sodipodi:nodetypes="ccccc" inkscape:connector-curvature="0" fill="url(#rect3757_1_)" d="M51,1054h5.6v2.3
			H51V1054z"/>
		
			<linearGradient id="path3782_1_" gradientUnits="userSpaceOnUse" x1="-2.9975" y1="71.1679" x2="1.1746" y2="71.9655" gradientTransform="matrix(0.9539 0 0 0.9539 48.3289 992.3104)">
			<stop  offset="0" style="stop-color:#FFFFFF"/>
			<stop  offset="1" style="stop-color:#D40000;stop-opacity:0"/>
		</linearGradient>
		<path id="path3782" sodipodi:nodetypes="cccc" inkscape:connector-curvature="0" fill="url(#path3782_1_)" d="M47.5,1056.6
			l-3.3,10.1l10.9-5.9C54.1,1054.7,60.1,1054.3,47.5,1056.6L47.5,1056.6z"/>
		
			<linearGradient id="path3782-1_1_" gradientUnits="userSpaceOnUse" x1="-24.634" y1="39.0886" x2="-21.2996" y2="39.6951" gradientTransform="matrix(0.2834 -0.9108 -0.9108 -0.2834 96.1921 1056.2455)">
			<stop  offset="0" style="stop-color:#FFFFFF"/>
			<stop  offset="1" style="stop-color:#D40000;stop-opacity:0"/>
		</linearGradient>
		<path id="path3782-1" sodipodi:nodetypes="cccc" inkscape:connector-curvature="0" fill="url(#path3782-1_1_)" d="M63.2,1066.7
			c-6.2,0.7-12.6,1-19.1,0l10.1-5.6C59.7,1063.8,59.9,1056.6,63.2,1066.7z"/>
		
			<linearGradient id="path3782-1-6_1_" gradientUnits="userSpaceOnUse" x1="-37.442" y1="34.8948" x2="-41.848" y2="30.0114" gradientTransform="matrix(0.2834 -0.9108 -0.9108 -0.2834 84.7452 1027.6285)">
			<stop  offset="0" style="stop-color:#FFFFFF"/>
			<stop  offset="1" style="stop-color:#D40000;stop-opacity:0"/>
		</linearGradient>
		<path id="path3782-1-6" sodipodi:nodetypes="cccc" inkscape:connector-curvature="0" fill="url(#path3782-1-6_1_)" d="
			M47.5,1055.9c-2.1,0.9-7.8,0.8-7.7-0.4c2.1-6,7.9-3.3,8.4-1.7L47.5,1055.9z"/>
		
			<linearGradient id="path3782-1-6-2_1_" gradientUnits="userSpaceOnUse" x1="-51.4635" y1="63.1164" x2="-45.091" y2="62.361" gradientTransform="matrix(0.2834 -0.9108 -0.9108 -0.2834 135.0217 1027.5219)">
			<stop  offset="0" style="stop-color:#FFFFFF"/>
			<stop  offset="1" style="stop-color:#D40000;stop-opacity:0"/>
		</linearGradient>
		<path id="path3782-1-6-2" sodipodi:nodetypes="ccc" inkscape:connector-curvature="0" fill="url(#path3782-1-6-2_1_)" d="
			M67.5,1055.4c-2.1,0.9-6,0.7-7.8,0C60.2,1049.9,67.5,1051.2,67.5,1055.4z"/>
		
			<linearGradient id="path3782-1-6-4_1_" gradientUnits="userSpaceOnUse" x1="-40.5564" y1="43.2649" x2="-47.9221" y2="40.7808" gradientTransform="matrix(0.2834 -0.9108 -0.9108 -0.2834 104.0782 1021.7842)">
			<stop  offset="0" style="stop-color:#FFFFFF"/>
			<stop  offset="1" style="stop-color:#D40000;stop-opacity:0"/>
		</linearGradient>
		<path id="path3782-1-6-4" sodipodi:nodetypes="csccc" inkscape:connector-curvature="0" fill="url(#path3782-1-6-4_1_)" d="
			M61,1051.2c-0.8,0.2-9.5-1-14.7,0.1c-3.9,0.8-2.4-0.3-2.3-0.9c7.1-1.7,13-1.3,19,0.1L61,1051.2z"/>
		
			<linearGradient id="path3780_1_" gradientUnits="userSpaceOnUse" x1="8.8261" y1="76.1898" x2="5.2266" y2="73.3197" gradientTransform="matrix(1.0212 0 0 1.0212 47.4104 985.8468)">
			<stop  offset="0" style="stop-color:#FFFFFF;stop-opacity:0.8009"/>
			<stop  offset="1" style="stop-color:#FFFFFF"/>
		</linearGradient>
		
			<linearGradient id="path3780_2_" gradientUnits="userSpaceOnUse" x1="6.5851" y1="78.8941" x2="5.8708" y2="72.5262" gradientTransform="matrix(1.0212 0 0 1.0212 47.4104 985.8468)">
			<stop  offset="0" style="stop-color:#000000"/>
			<stop  offset="1" style="stop-color:#FFFFFF"/>
		</linearGradient>
		
			<path id="path3780" sodipodi:type="arc" sodipodi:ry="8.7125654" sodipodi:rx="14.015866" sodipodi:cy="67.801384" sodipodi:cx="48.866131" fill="url(#path3780_1_)" stroke="url(#path3780_2_)" d="
			M59.2,1061.4c0,1.9-2.5,3.5-5.6,3.5c-3.1,0-5.6-1.5-5.6-3.5l0,0c0-1.9,2.5-3.5,5.6-3.5C56.7,1057.8,59.2,1059.4,59.2,1061.4
			L59.2,1061.4z"/>
		
			<linearGradient id="path3780-7_1_" gradientUnits="userSpaceOnUse" x1="27.789" y1="92.2776" x2="27.0741" y2="85.9054" gradientTransform="matrix(0.4175 0 0 0.4175 42.196 1024.4655)">
			<stop  offset="0" style="stop-color:#000000"/>
			<stop  offset="1" style="stop-color:#FFFFFF"/>
		</linearGradient>
		
			<path id="path3780-7" sodipodi:type="arc" sodipodi:ry="8.7125654" sodipodi:rx="14.015866" sodipodi:cy="67.801384" sodipodi:cx="48.866131" fill="#FFFC68" stroke="url(#path3780-7_1_)" d="
			M55.9,1061c0,0.8-1,1.4-2.3,1.4s-2.3-0.6-2.3-1.4l0,0c0-0.8,1-1.4,2.3-1.4S55.9,1060.1,55.9,1061L55.9,1061z"/>
		
			<linearGradient id="path3780-7-7_1_" gradientUnits="userSpaceOnUse" x1="-111.8729" y1="37.9576" x2="-111.2402" y2="21.0471" gradientTransform="matrix(-0.1921 2.602210e-003 -2.783275e-003 -0.1796 29.0564 1067.6276)">
			<stop  offset="0" style="stop-color:#000000"/>
			<stop  offset="1" style="stop-color:#FFFFFF"/>
		</linearGradient>
		
			<path id="path3780-7-7" sodipodi:type="arc" sodipodi:ry="8.7125654" sodipodi:rx="14.015866" sodipodi:cy="67.801384" sodipodi:cx="48.866131" fill="#DBDBDB" stroke="url(#path3780-7-7_1_)" stroke-width="2.9324" d="
			M49.3,1062.5c0-0.3,0.5-0.6,1-0.6c0.5,0,1.1,0.3,1.1,0.6l0,0c0,0.3-0.5,0.6-1,0.6C49.8,1063.1,49.3,1062.8,49.3,1062.5
			L49.3,1062.5z"/>
		
			<linearGradient id="path3780-7-7-9_1_" gradientUnits="userSpaceOnUse" x1="-116.0704" y1="21.8989" x2="-115.4376" y2="4.9885" gradientTransform="matrix(-0.1921 2.602210e-003 -2.783275e-003 -0.1796 27.6017 1062.8949)">
			<stop  offset="0" style="stop-color:#000000"/>
			<stop  offset="1" style="stop-color:#FFFFFF"/>
		</linearGradient>
		
			<path id="path3780-7-7-9" sodipodi:type="arc" sodipodi:ry="8.7125654" sodipodi:rx="14.015866" sodipodi:cy="67.801384" sodipodi:cx="48.866131" fill="#DBDBDB" stroke="url(#path3780-7-7-9_1_)" stroke-width="2.9324" d="
			M48.7,1060.7c0-0.3,0.5-0.6,1-0.6c0.6,0,1.1,0.3,1.1,0.6l0,0c0,0.3-0.5,0.6-1,0.6C49.2,1061.3,48.7,1061,48.7,1060.7L48.7,1060.7z
			"/>
		
			<linearGradient id="path3780-7-7-2_1_" gradientUnits="userSpaceOnUse" x1="-102.4957" y1="8.5301" x2="-101.8629" y2="-8.3804" gradientTransform="matrix(-0.1921 2.602210e-003 -2.783275e-003 -0.1796 31.7837 1058.8949)">
			<stop  offset="0" style="stop-color:#000000"/>
			<stop  offset="1" style="stop-color:#FFFFFF"/>
		</linearGradient>
		
			<path id="path3780-7-7-2" sodipodi:type="arc" sodipodi:ry="8.7125654" sodipodi:rx="14.015866" sodipodi:cy="67.801384" sodipodi:cx="48.866131" fill="#DBDBDB" stroke="url(#path3780-7-7-2_1_)" stroke-width="2.9324" d="
			M50.3,1059c0-0.3,0.5-0.6,1-0.6c0.6,0,1.1,0.3,1.1,0.6l0,0c0,0.3-0.5,0.6-1,0.6C50.8,1059.6,50.3,1059.3,50.3,1059L50.3,1059z"/>
		
			<linearGradient id="path4081_1_" gradientUnits="userSpaceOnUse" x1="-37.7408" y1="81.479" x2="-36.9834" y2="85.2995" gradientTransform="matrix(0.734 -0.831 0.831 0.734 16.2507 971.7288)">
			<stop  offset="0" style="stop-color:#303149"/>
			<stop  offset="1" style="stop-color:#E1E1E1;stop-opacity:0.478"/>
		</linearGradient>
		
			<linearGradient id="path4081_2_" gradientUnits="userSpaceOnUse" x1="-28.2153" y1="1039.6478" x2="-26.1489" y2="1038.1793" gradientTransform="matrix(0.734 -0.831 0.831 0.734 -785.9461 278.5516)">
			<stop  offset="0" style="stop-color:#000000"/>
			<stop  offset="1" style="stop-color:#000000;stop-opacity:0"/>
		</linearGradient>
		
			<path id="path4081" sodipodi:nodetypes="cccc" inkscape:connector-curvature="0" fill="url(#path4081_1_)" stroke="url(#path4081_2_)" stroke-width="0.77" stroke-linejoin="round" d="
			M57.5,1064.5l-1.3-2.3l2.7,1.4C58.4,1064.1,57.9,1064.4,57.5,1064.5z"/>
		
			<linearGradient id="path3780-7-7-2-0_1_" gradientUnits="userSpaceOnUse" x1="-80.1821" y1="6.7388" x2="-79.5494" y2="-10.1718" gradientTransform="matrix(-0.1921 2.602210e-003 -2.783275e-003 -0.1796 38.8887 1058.2643)">
			<stop  offset="0" style="stop-color:#000000"/>
			<stop  offset="1" style="stop-color:#FFFFFF"/>
		</linearGradient>
		
			<path id="path3780-7-7-2-0" sodipodi:type="arc" sodipodi:ry="8.7125654" sodipodi:rx="14.015866" sodipodi:cy="67.801384" sodipodi:cx="48.866131" fill="#DBDBDB" stroke="url(#path3780-7-7-2-0_1_)" stroke-width="2.9324" d="
			M53.2,1058.8c0-0.3,0.5-0.6,1-0.6c0.6,0,1.1,0.3,1.1,0.6l0,0c0,0.3-0.5,0.6-1,0.6S53.2,1059.1,53.2,1058.8L53.2,1058.8z"/>
		
			<linearGradient id="path3780-7-7-2-9_1_" gradientUnits="userSpaceOnUse" x1="-60.4326" y1="14.8653" x2="-59.7999" y2="-2.0454" gradientTransform="matrix(-0.1921 2.602210e-003 -2.783275e-003 -0.1796 45.1243 1060.5789)">
			<stop  offset="0" style="stop-color:#000000"/>
			<stop  offset="1" style="stop-color:#FFFFFF"/>
		</linearGradient>
		
			<path id="path3780-7-7-2-9" sodipodi:type="arc" sodipodi:ry="8.7125654" sodipodi:rx="14.015866" sodipodi:cy="67.801384" sodipodi:cx="48.866131" fill="#DBDBDB" stroke="url(#path3780-7-7-2-9_1_)" stroke-width="2.9324" d="
			M55.6,1059.7c0-0.3,0.5-0.6,1-0.6c0.5,0,1.1,0.3,1.1,0.6l0,0c0,0.3-0.5,0.6-1,0.6C56.2,1060.3,55.6,1060,55.6,1059.7L55.6,1059.7z
			"/>
		
			<linearGradient id="path3780-7-7-2-3_1_" gradientUnits="userSpaceOnUse" x1="-54.8182" y1="30.8153" x2="-54.1855" y2="13.9047" gradientTransform="matrix(-0.1921 2.602210e-003 -2.783275e-003 -0.1796 47.0529 1065.2715)">
			<stop  offset="0" style="stop-color:#000000"/>
			<stop  offset="1" style="stop-color:#FFFFFF"/>
		</linearGradient>
		
			<path id="path3780-7-7-2-3" sodipodi:type="arc" sodipodi:ry="8.7125654" sodipodi:rx="14.015866" sodipodi:cy="67.801384" sodipodi:cx="48.866131" fill="#DBDBDB" stroke="url(#path3780-7-7-2-3_1_)" stroke-width="2.9324" d="
			M56.4,1061.6c0-0.3,0.5-0.6,1-0.6c0.6,0,1.1,0.3,1.1,0.6l0,0c0,0.3-0.5,0.6-1,0.6S56.4,1061.9,56.4,1061.6L56.4,1061.6z"/>
		
			<linearGradient id="path3780-7-7-2-4_1_" gradientUnits="userSpaceOnUse" x1="-91.8184" y1="47.2362" x2="-91.1856" y2="30.326" gradientTransform="matrix(-0.1921 2.602210e-003 -2.783275e-003 -0.1796 35.3529 1070.2858)">
			<stop  offset="0" style="stop-color:#000000"/>
			<stop  offset="1" style="stop-color:#FFFFFF"/>
		</linearGradient>
		
			<path id="path3780-7-7-2-4" sodipodi:type="arc" sodipodi:ry="8.7125654" sodipodi:rx="14.015866" sodipodi:cy="67.801384" sodipodi:cx="48.866131" fill="#DBDBDB" stroke="url(#path3780-7-7-2-4_1_)" stroke-width="2.9324" d="
			M51.8,1063.5c0-0.3,0.5-0.6,1-0.6c0.6,0,1.1,0.3,1.1,0.6l0,0c0,0.3-0.5,0.6-1,0.6C52.3,1064.1,51.8,1063.9,51.8,1063.5
			L51.8,1063.5z"/>
	</g>
</g>
</svg>
