<?xml version="1.0" encoding="UTF-8" standalone="no"?>
<!-- Created with Inkscape (http://www.inkscape.org/) -->
<svg
   xmlns:dc="http://purl.org/dc/elements/1.1/"
   xmlns:cc="http://web.resource.org/cc/"
   xmlns:rdf="http://www.w3.org/1999/02/22-rdf-syntax-ns#"
   xmlns:svg="http://www.w3.org/2000/svg"
   xmlns="http://www.w3.org/2000/svg"
   xmlns:sodipodi="http://inkscape.sourceforge.net/DTD/sodipodi-0.dtd"
   xmlns:inkscape="http://www.inkscape.org/namespaces/inkscape"
   id="svg1322"
   sodipodi:version="0.32"
   inkscape:version="0.43"
   width="375pt"
   height="454pt"
   sodipodi:docbase="C:\foo\wikipedia\transfer"
   sodipodi:docname="compass.svg"
   version="1.0">
  <metadata
     id="metadata1327">
    <rdf:RDF>
      <cc:Work
         rdf:about="">
        <dc:format>image/svg+xml</dc:format>
        <dc:type
           rdf:resource="http://purl.org/dc/dcmitype/StillImage" />
        <cc:license
           rdf:resource="http://web.resource.org/cc/PublicDomain" />
      </cc:Work>
      <cc:License
         rdf:about="http://web.resource.org/cc/PublicDomain">
        <cc:permits
           rdf:resource="http://web.resource.org/cc/Reproduction" />
        <cc:permits
           rdf:resource="http://web.resource.org/cc/Distribution" />
        <cc:permits
           rdf:resource="http://web.resource.org/cc/DerivativeWorks" />
      </cc:License>
    </rdf:RDF>
  </metadata>
  <defs
     id="defs1325" />
  <sodipodi:namedview
     inkscape:window-height="721"
     inkscape:window-width="1024"
     inkscape:pageshadow="2"
     inkscape:pageopacity="0.0"
     borderopacity="1.0"
     bordercolor="#666666"
     pagecolor="#ffffff"
     id="base"
     inkscape:zoom="0.77934522"
     inkscape:cx="511.8787"
     inkscape:cy="270.4064"
     inkscape:window-x="-4"
     inkscape:window-y="-4"
     inkscape:current-layer="svg1322" />
  <g
     id="g7524">
    <path
       id="path1331"
       d="M 106.46875 8.5625 C 84.44562 8.9417625 64.534921 24.924404 59 47.4375 C 55.06648 63.436951 59.186511 77.088129 71.875 90 C 79.76221 98.02606 88.185729 102.84306 97.6875 104.78125 L 103.6875 106 L 96.28125 110.09375 C 79.85385 119.15702 61.749601 134.1091 50.9375 147.53125 C 22.64018 182.65958 10.142469 212.46528 8.6875 248.34375 C 8.05803 263.86598 10.1193 285.62892 13.4375 298.625 C 17.76413 315.57074 24.980379 331.18093 36.90625 349.375 C 41.88721 356.97394 45.720778 361.21706 56.0625 370.53125 C 78.09388 390.37363 83.681977 394.01575 105.3125 402.875 C 120.54034 409.11191 135.81722 413.92925 150.375 417.0625 C 161.46425 419.44923 165.01933 419.74796 181.875 419.75 C 196.19756 419.75174 202.59826 419.3561 207.875 418.09375 C 211.725 417.17271 215.99999 416.14296 217.375 415.8125 C 217.40723 415.80475 217.44538 415.78444 217.46875 415.78125 C 217.47556 415.78069 217.49415 415.78131 217.5 415.78125 C 217.50732 415.7819 217.52608 415.81075 217.53125 415.8125 C 217.53327 415.8144 217.56143 415.81012 217.5625 415.8125 C 217.5621 415.81417 217.56313 415.84196 217.5625 415.84375 C 217.55904 415.85138 217.53839 415.86549 217.53125 415.875 C 217.52676 415.88022 217.5054 415.90057 217.5 415.90625 C 216.80705 416.58221 210.64648 420.04519 202.375 424.375 C 145.08512 454.36402 117.08854 473.92099 102.875 493.875 C 95.30371 504.50413 93.440418 515.39891 97.28125 526.5625 C 102.14746 540.70637 114.74845 552.3498 128.9375 555.78125 C 136.04914 557.5011 171.44583 557.83509 186.875 556.34375 C 220.45503 553.09792 259.49194 542.69613 295.375 527.40625 C 311.92943 520.35236 356.94569 497.56504 372 488.625 C 403.85754 469.70631 428.46482 450.58893 440.8125 435.15625 C 447.72085 426.52188 455.14055 413.27023 458.4375 403.6875 C 461.22718 395.57916 461.2322 370.84316 458.4375 364.6875 C 453.84691 354.57617 443.59887 347.5572 430.3125 345.4375 C 411.0912 342.37093 362.67813 351.33168 324.875 364.9375 C 315.26373 368.39672 310.54588 370.11129 309.53125 369.6875 C 309.51641 369.68041 309.48183 369.66438 309.46875 369.65625 C 309.41386 369.6173 309.36347 369.56028 309.34375 369.5 C 309.33846 369.47911 309.3452 369.42953 309.34375 369.40625 C 309.34346 369.36611 309.33353 369.29685 309.34375 369.25 C 309.59736 368.25715 312.06594 365.82825 316.125 361.75 C 336.98248 340.79396 351.60587 317.85435 359.78125 293.28125 C 365.93191 274.79399 366.8763 268.31628 366.8125 244.875 C 366.76135 226.08511 366.47385 222.55017 364.09375 211.3125 C 354.58717 166.42694 333.2885 132.35982 301.3125 110.90625 C 280.27437 96.791189 256.73302 87.977522 229.25 83.9375 C 208.981 80.95794 175.31793 82.26383 156.375 86.78125 C 151.7824 87.876474 149.67884 88.398504 149.15625 88.0625 C 149.1526 88.059956 149.12848 88.065135 149.125 88.0625 C 149.11838 88.057047 149.09971 88.03707 149.09375 88.03125 C 149.08812 88.025245 149.06747 88.006375 149.0625 88 C 149.06034 87.996627 149.0645 87.972217 149.0625 87.96875 C 149.06066 87.96519 149.03293 87.941154 149.03125 87.9375 C 149.02989 87.933658 149.03245 87.910186 149.03125 87.90625 C 149.02858 87.893874 149.03253 87.856983 149.03125 87.84375 C 149.01978 87.401927 149.69725 86.514944 150.78125 85.09375 C 154.64289 80.03089 158.14532 71.551868 159.40625 64.21875 C 160.79236 56.157662 158.85582 43.898483 154.9375 35.90625 C 152.01883 29.953027 143.9218 20.117774 139.21875 16.8125 C 135.02198 13.863033 120.18474 9.5419616 111.5 8.75 C 109.81566 8.5964045 108.13436 8.5338163 106.46875 8.5625 z M 106.21875 21.15625 C 110.85238 21.062814 115.74199 21.861891 120.75 23.53125 C 130.16372 26.669197 138.99612 34.956448 142.28125 43.78125 C 146.22779 54.382789 145.11444 66.35235 139.15625 77.59375 C 136.04511 83.46357 135.03647 84.005727 134.0625 80.28125 C 133.65941 78.73984 134.03446 78.023162 135.4375 77.65625 C 136.00592 77.507605 136.45193 77.365763 136.75 77.21875 C 136.8247 77.180358 136.91171 77.136815 136.96875 77.09375 C 136.98246 77.082805 137.01864 77.042575 137.03125 77.03125 C 137.03728 77.025487 137.05674 77.005867 137.0625 77 C 137.06798 76.994026 137.08854 76.974836 137.09375 76.96875 C 137.14807 76.900544 137.19728 76.803509 137.21875 76.71875 C 137.22548 76.687294 137.24758 76.627891 137.25 76.59375 C 137.27115 76.044887 136.76242 75.12014 135.75 73.40625 C 133.1712 69.0407 129.38438 67.375002 122.09375 67.375 C 116.964 67.375 114.50405 67.948532 110.34375 70.125 C 102.83125 74.05518 99.164882 78.987966 98.59375 85.875 C 98.326111 89.10241 98.197726 90.575259 98.71875 91.03125 C 98.750053 91.055974 98.807925 91.106941 98.84375 91.125 C 99.33382 91.342797 100.23899 90.992611 101.78125 90.40625 C 103.86705 89.61323 104.50985 89.7856 105.34375 91.34375 C 105.86877 92.324759 106.32261 93.367759 106.375 93.75 C 106.37566 93.756003 106.37456 93.775621 106.375 93.78125 C 106.37522 93.786499 106.375 93.807638 106.375 93.8125 C 106.37453 93.825213 106.37643 93.86281 106.375 93.875 C 106.37404 93.880964 106.3762 93.900417 106.375 93.90625 C 106.37356 93.911951 106.34544 93.93193 106.34375 93.9375 C 106.34182 93.942938 106.34593 93.963443 106.34375 93.96875 C 106.33647 93.984274 106.32203 94.016915 106.3125 94.03125 C 106.30907 94.035896 106.28493 94.057986 106.28125 94.0625 C 106.27338 94.071262 106.25889 94.08552 106.25 94.09375 C 106.2453 94.097732 106.22371 94.121151 106.21875 94.125 C 106.21353 94.128715 106.19298 94.152668 106.1875 94.15625 C 106.18175 94.159698 106.16226 94.152936 106.15625 94.15625 C 106.1437 94.162611 106.10736 94.181676 106.09375 94.1875 C 106.0796 94.193056 106.04648 94.213732 106.03125 94.21875 C 105.98394 94.232994 105.90096 94.240624 105.84375 94.25 C 104.96048 94.378422 102.93212 93.959343 99.375 92.9375 C 82.69534 88.14595 72.579053 76.80103 71.59375 61.78125 C 70.77084 49.236976 75.261792 38.319871 84.84375 29.5625 C 90.752054 24.162644 98.097443 21.320014 106.21875 21.15625 z "
       style="fill:#000000;stroke:none;stroke-opacity:1" />
    <path
       id="path1401"
       d="M 176.58048,542.80846 C 210.53924,538.29245 230.26601,533.6721 265.90833,521.88632 C 322.90852,503.03818 359.23458,483.55667 398.87423,450.57731 C 408.96815,442.17937 442.37423,409.63403 442.37423,408.19812 C 442.37423,407.77162 438.15929,410.71747 433.00769,414.74446 C 414.63021,429.11009 390.30611,445.03006 371.87423,454.75592 C 366.92423,457.36787 364.21601,458.46301 365.85597,457.18958 C 388.18815,439.84854 425.18168,407.77056 431.36545,400.38473 C 438.54457,391.81005 439.71561,384.37424 433.88687,384.37424 C 431.36531,384.37424 429.72421,385.68052 407.92588,405.03848 C 376.49831,432.94768 342.91631,455.04594 300.87423,475.48262 C 258.1397,496.25591 226.79819,508.06391 189.87423,517.30219 C 159.73798,524.8422 125.86257,529.26176 115.12423,527.05444 C 111.47637,526.30461 111.37423,526.36253 111.37423,529.18104 C 111.37423,535.57602 119.20161,542.4633 128.56443,544.30661 C 137.35429,546.03713 156.88419,545.42777 176.58048,542.80846 z "
       style="fill:#ffe64d;stroke:none;stroke-opacity:1;fill-opacity:1" />
    <path
       id="path1399"
       d="M 143.55772,539.88713 C 137.47204,538.94372 134.58844,537.98466 132.80772,536.31176 C 131.4693,535.05438 130.37423,533.70573 130.37423,533.31476 C 130.37423,532.92379 134.76173,532.66473 140.12423,532.73907 C 145.48673,532.81341 151.54158,532.52013 153.57946,532.08733 C 157.03933,531.35252 157.39017,531.50439 158.87756,534.38068 C 159.75364,536.07483 161.58655,537.96949 162.95071,538.59104 C 169.15648,541.41858 158.17227,542.15269 143.55772,539.88713 z "
       style="fill:#cca300;stroke:none;stroke-opacity:1;fill-opacity:1" />
    <path
       id="path1397"
       d="M 263.64513,511.53273 C 266.32795,508.65501 268.69223,505.03425 269.04709,503.25992 C 269.60506,500.47008 270.61614,499.67135 277.77619,496.36405 C 282.23011,494.30675 291.94923,490.14695 299.37423,487.12005 C 316.17448,480.27121 327.85158,474.71038 336.74848,469.32181 C 342.17472,466.03531 343.80398,465.44434 344.48317,466.51626 C 347.27848,470.92794 343.47004,477.01359 333.87148,483.47309 C 318.18871,494.02706 282.46052,510.6309 267.37423,514.37614 C 264.89923,514.99057 261.97423,515.75359 260.87423,516.07175 C 259.51142,516.46593 260.39423,515.01981 263.64513,511.53273 z "
       style="fill:#000000;stroke:none;stroke-opacity:1" />
    <path
       id="path1395"
       d="M 146.92662,515.36268 C 217.206,502.46403 341.87067,444.97565 409.93073,394.07988 C 429.83559,379.19489 439.7404,364.58124 433.62423,359.12225 C 424.41908,350.90621 387.56029,357.16722 337.87423,375.38681 C 281.37806,396.10362 225.88428,422.1904 179.87423,449.66017 C 156.75949,463.46057 132.55465,480.83199 119.15657,493.23624 C 109.67017,502.01898 106.93492,509.73399 111.71531,514.22494 C 116.4371,518.66084 127.08224,519.0048 146.92662,515.36268 z "
       style="fill:#cca300;stroke:none;stroke-opacity:1;fill-opacity:1" />
    <path
       id="path1393"
       d="M 139.15142,511.1133 C 138.19676,508.78755 139.18513,503.9202 141.73821,498.37424 C 149.63042,481.23029 194.98333,452.82127 265.87423,420.61555 C 314.75259,398.41012 354.7272,384.73858 386.6362,379.31425 C 394.75608,377.93392 403.72528,379.19201 408.99832,382.45093 C 413.49771,385.23171 412.91982,385.67695 407.33518,383.73231 C 401.4631,381.68759 393.98219,382.46291 377.03473,386.87265 C 350.93652,393.66343 312.94853,408.14287 267.04825,428.79492 C 246.30597,438.12756 199.48804,462.95765 178.33671,475.84346 C 159.27591,487.45567 140.89801,503.9386 140.19784,510.04976 C 139.94067,512.29433 139.72583,512.51269 139.15142,511.1133 z "
       style="fill:#000000;stroke:none;stroke-opacity:1" />
    <path
       id="path1391"
       d="M 247.402,404.72175 C 271.47652,391.74459 288.65626,383.78546 299.0072,380.81376 C 302.23407,379.88735 305.01791,379.00329 305.19352,378.84919 C 305.36913,378.69508 304.91913,377.51268 304.19352,376.22162 C 303.46791,374.93056 302.79324,373.71825 302.69426,373.5276 C 302.42255,373.00428 289.92211,378.11587 280.76293,382.49559 C 276.30172,384.62885 272.13922,386.37424 271.51293,386.37424 C 269.68521,386.37424 270.18752,384.89827 272.87423,382.37424 C 276.17537,379.27298 276.02756,377.18794 272.19733,372.82554 L 269.02043,369.20726 L 271.91503,369.54075 C 273.80944,369.75901 275.52421,370.93847 276.87766,372.95416 L 278.94568,376.03409 L 288.15996,371.76447 C 298.2669,367.08123 298.46967,366.76253 296.18785,359.14649 C 294.62001,353.91352 290.53045,349.68177 286.26843,348.88222 C 280.9669,347.88764 272.5232,351.59501 258.64256,361.01189 C 244.92021,370.32139 241.49609,372.21636 231.80632,375.86358 C 211.83137,383.38213 210.32098,384.89663 214.55772,393.15908 C 216.46642,396.88142 217.80708,398.16538 220.92487,399.25695 C 224.63834,400.55707 225.29112,400.46628 231.85387,397.737 L 238.83351,394.83435 L 240.47144,388.57006 C 242.36951,381.31083 243.28352,379.85995 243.15708,384.30693 C 243.09624,386.44689 243.93879,388.35408 245.80605,390.30307 C 248.16734,392.76773 249.11752,393.09772 252.70923,392.70051 C 256.67308,392.26214 256.77764,392.31776 254.87423,393.85216 C 253.77423,394.7389 249.49923,397.31017 245.37423,399.5661 C 241.24923,401.82202 235.1468,405.60552 231.81328,407.97388 C 228.47976,410.34224 224.52149,412.74795 223.01713,413.31991 C 220.71175,414.19641 220.48561,414.59071 221.57808,415.829 C 222.29096,416.63704 223.11172,417.31528 223.402,417.3362 C 223.69227,417.35712 234.49227,411.68062 247.402,404.72175 z "
       style="fill:#ffe699;stroke:none;stroke-opacity:1;fill-opacity:1" />
    <path
       id="path1389"
       d="M 200.87423,405.86254 C 206.92423,404.89334 212.05258,403.94613 212.27057,403.75762 C 212.48855,403.56912 211.48594,401.63033 210.04253,399.4492 C 208.59913,397.26807 206.87888,393.75557 206.21975,391.64365 L 205.02133,387.80379 L 199.44778,389.70168 C 187.22707,393.86303 154.22347,393.44706 132.48718,388.85772 C 103.13463,382.66029 81.24572,371.73117 51.62423,348.48288 C 45.98673,344.05832 41.37423,340.82432 41.37423,341.29622 C 41.37423,343.23628 50.4701,354.29551 56.94224,360.22462 C 73.49517,375.38871 96.06427,387.48713 119.45616,393.73592 C 138.4915,398.82092 147.73545,399.79 177.62249,399.83368 C 192.88403,399.85599 205.40528,400.22299 205.44749,400.64924 C 205.73134,403.5158 204.1651,403.87829 188.79394,404.50356 C 165.46683,405.45247 139.37356,403.43123 121.57241,399.29645 C 112.10098,397.09646 96.63035,391.51131 88.02304,387.18457 C 80.95816,383.63319 79.41827,383.9948 86.11922,387.63164 C 99.67975,394.99143 124.71878,403.60859 141.87423,406.81966 C 152.68166,408.84255 185.60641,408.30843 200.87423,405.86254 z "
       style="fill:#cca300;stroke:none;stroke-opacity:1;fill-opacity:1" />
    <path
       id="path1387"
       d="M 193.30031,381.87759 C 206.07951,379.37939 232.30929,370.51564 248.00324,363.392 C 253.61233,360.84597 277.15346,344.56754 286.37423,336.85889 C 318.21909,310.23625 336.23372,276.59804 340.41178,235.95611 C 343.00569,210.7239 338.02469,182.56168 327.13218,160.87424 C 310.51188,127.7825 278.45579,104.19666 238.31756,95.527319 C 211.49861,89.734769 183.00267,90.874389 151.09683,99.015489 C 127.19752,105.11365 110.93486,112.65059 88.88308,127.8485 C 60.59851,147.342 39.71082,173.14169 29.82896,200.78992 C 26.4957,210.11596 22.56513,228.1687 20.28235,244.63649 C 19.33438,251.47512 19.33077,255.56908 20.2659,263.28482 C 25.78346,308.80992 52.03679,347.80434 89.87423,366.675 C 105.47293,374.45454 132.48198,381.94686 151.37423,383.73513 C 160.33581,384.5834 185.06328,383.48785 193.30031,381.87759 z "
       style="fill:#ffea66;stroke:none;stroke-opacity:1;fill-opacity:1" />
    <path
       id="path1385"
       d="M 159.18673,379.69113 C 159.90861,379.40226 160.7711,379.43778 161.1034,379.77007 C 161.43569,380.10236 160.84506,380.33871 159.7909,380.29529 C 158.62595,380.24731 158.389,380.01035 159.18673,379.69113 z "
       style="fill:#000000;stroke:none;stroke-opacity:1" />
    <path
       id="path1383"
       d="M 144.37423,377.37694 C 116.66722,371.35203 93.60476,360.32869 79.41982,346.33018 C 59.3622,326.53619 46.74212,296.72522 43.87818,262.37424 C 42.13143,241.42325 49.75122,208.07541 61.01525,187.37424 C 71.09488,168.84976 94.2477,146.29683 116.56745,133.26139 C 140.28602,119.409 169.60336,110.37424 190.83509,110.37424 C 204.88415,110.37424 234.3305,115.94727 249.11292,121.40394 C 270.73586,129.38566 300.4458,152.62554 314.27349,172.37424 C 321.20367,182.27192 327.64862,194.20486 330.81178,202.99523 C 333.89923,211.57517 333.90923,211.81416 331.33213,215.43336 C 329.41109,218.13122 329.35914,218.82056 330.45582,227.06166 C 331.80314,237.18616 331.1554,246.96294 328.84075,251.43898 C 327.95305,253.1556 327.06082,254.39417 326.85802,254.19136 C 326.65521,253.98855 325.98986,248.0232 325.37946,240.93502 C 322.75157,210.41876 316.04223,195.98877 294.40971,174.32736 C 283.6157,163.51893 274.50141,157.87868 254.66264,149.73046 C 228.27615,138.89294 211.82407,135.72813 186.87423,136.69029 C 128.48327,138.94208 84.21719,170.62925 65.54767,223.53997 C 60.46008,237.95854 59.05484,246.32806 59.02739,262.37424 C 59.00607,274.84179 59.38282,278.40786 61.71521,287.81547 C 70.28724,322.39046 88.57274,345.5916 122.20736,364.56959 C 133.69212,371.04974 140.26472,373.951 150.37423,377.00293 C 159.40438,379.72901 156.12956,379.93315 144.37423,377.37694 z "
       style="fill:#000000;stroke:none;stroke-opacity:1" />
    <path
       id="path1381"
       d="M 229.9847,362.90249 C 229.01535,361.42308 228.47789,359.54648 228.79034,358.73225 C 229.2821,357.45075 229.74546,357.48046 232.23897,358.95341 C 237.54959,362.09047 243.63132,358.52578 239.93567,354.44213 C 237.62836,351.89258 233.38445,351.13354 233.34243,353.26291 C 233.31347,354.73001 233.20158,354.73242 232.09243,353.28988 C 231.42242,352.41849 229.52423,351.37551 227.87423,350.97216 C 226.22423,350.56881 223.88276,349.59768 222.67096,348.81408 C 220.05594,347.12312 218.73598,341.43533 220.28633,338.53849 C 221.23033,336.7746 219.98573,334.31002 211.26948,320.68319 C 205.70787,311.98827 200.99667,304.70217 200.80014,304.49187 C 200.60362,304.28157 200.72235,310.91907 201.06399,319.24187 L 201.68516,334.37424 L 199.09708,334.37424 C 195.7563,334.37424 195.64911,333.90048 194.91136,315.87424 C 194.57372,307.62424 194.03938,298.52362 193.72393,295.65063 L 193.15038,290.42703 L 182.0123,303.83984 C 175.88636,311.21688 170.75563,316.92419 170.61066,316.52275 C 170.4657,316.1213 172.36116,309.08162 174.8228,300.87901 C 177.28443,292.6764 179.15818,285.82486 178.98669,285.65336 C 178.81519,285.48187 172.99612,290.74891 166.05541,297.3579 C 159.1147,303.96689 153.16747,309.37424 152.83934,309.37424 C 152.51122,309.37424 151.31386,308.87712 150.17856,308.26952 C 148.25944,307.24244 148.94811,306.3289 159.97867,295.26952 L 171.84297,283.37424 L 168.3586,283.44111 C 166.4422,283.47789 159.1433,284.05632 152.13884,284.7265 C 145.13438,285.39669 139.73438,285.64387 140.13884,285.27581 C 140.5433,284.90774 146.72423,282.03706 153.87423,278.89651 C 161.02423,275.75596 167.54923,272.77277 168.37423,272.26718 C 169.31596,271.69006 163.64025,271.42728 153.12426,271.56112 C 141.30675,271.71152 136.02581,271.42582 135.19092,270.59093 C 134.54008,269.94009 134.29717,269.11797 134.65113,268.764 C 135.00509,268.41004 142.79696,267.74318 151.96639,267.28208 C 161.13582,266.82099 168.82039,266.26141 169.04322,266.03858 C 169.26605,265.81575 166.20048,264.42956 162.23084,262.95816 C 154.08018,259.93699 144.96918,258.61422 128.70577,258.09084 L 117.5373,257.73142 L 115.91341,261.80283 C 114.51693,265.30406 114.1479,265.62818 113.27825,264.11721 C 111.45111,260.94264 104.29719,258.02975 98.13001,257.94923 C 94.97069,257.90799 92.38319,257.59126 92.38001,257.24539 C 92.37683,256.89952 85.39923,256.28964 76.87423,255.8901 L 61.37423,255.16367 L 61.37423,248.6142 L 61.37423,242.06473 L 79.31798,242.65494 L 97.26173,243.24515 L 98.45331,239.55969 C 99.52316,236.25072 103.07339,228.48225 103.97299,227.48174 C 104.16709,227.26586 104.89928,227.54158 105.60007,228.09444 C 107.24182,229.38963 119.66956,230.66112 118.92588,229.45781 C 117.85024,227.7174 109.00748,222.37424 107.20279,222.37424 C 105.07489,222.37424 104.98623,221.78572 106.47206,217.52346 C 107.65494,214.13026 108.82968,213.51278 109.71468,215.81907 C 110.36435,217.51207 115.56098,218.66612 120.44141,218.20123 L 123.87423,217.87424 L 118.38758,214.12424 C 115.36992,212.06174 112.17456,210.37424 111.28679,210.37424 C 109.90006,210.37424 109.82699,209.88113 110.76813,206.87424 C 111.87089,203.35099 113.37423,202.15341 113.37423,204.79818 C 113.37423,206.50354 116.70279,209.23694 125.15279,214.47071 C 128.606,216.60956 131.71662,219.10291 132.06527,220.01149 C 132.92193,222.24391 129.59226,224.55999 126.39369,223.95659 C 125.00799,223.69518 121.84923,223.17852 119.37423,222.80847 L 114.87423,222.13564 L 121.12423,226.75287 C 124.56173,229.29235 127.37423,231.73503 127.37423,232.18104 C 127.37423,232.62706 126.81173,233.74344 126.12423,234.66188 C 124.98153,236.18844 124.14143,236.21195 116.33743,234.93571 C 111.64219,234.16786 106.25751,233.85523 104.37147,234.24097 L 100.9423,234.94231 L 103.04347,237.04347 C 106.67422,240.67423 116.08031,243.61798 125.37423,244.03216 C 130.04923,244.24049 136.50642,244.54714 139.72355,244.71359 L 145.57287,245.01623 L 141.22355,242.74909 L 136.87423,240.48196 L 154.57129,241.08367 L 172.26836,241.68538 L 171.66953,239.39548 C 171.33182,238.10406 168.23201,235.09298 164.56047,232.48991 C 154.2941,225.2112 150.23884,221.31171 150.57568,219.04234 C 150.73988,217.93605 151.32423,216.89022 151.87423,216.71828 C 152.42423,216.54634 156.91405,219.97128 161.85161,224.32924 C 166.78916,228.68721 170.94559,232.13621 171.08811,231.99369 C 171.23063,231.85117 169.51687,226.26294 167.27976,219.57539 L 163.21228,207.41621 L 159.33309,209.39523 C 154.83878,211.68805 152.27296,212.07551 154.17423,210.17424 C 156.01614,208.33233 155.61577,205.03256 152.90537,199.71653 C 151.5475,197.05327 149.54029,192.74095 148.44492,190.13359 C 147.22034,187.2187 145.27241,184.67478 143.38704,183.52822 C 140.81859,181.96625 140.5529,181.47085 141.75058,180.47686 C 144.07861,178.54477 148.72131,177.58857 151.24373,178.52167 C 152.9901,179.16769 153.46164,179.06768 153.07709,178.13281 C 148.03649,165.87851 145.07985,156.92212 144.62714,152.53577 C 143.77614,144.29041 145.87153,146.11628 153.28181,160.07728 L 159.6894,172.14919 L 166.03181,169.30354 C 171.94415,166.65085 174.17829,166.63212 171.00972,169.2618 C 169.8842,170.19589 170.34028,171.72072 173.61362,177.96754 C 179.59624,189.38473 182.6781,197.47037 181.49725,198.65122 C 180.94503,199.20344 179.11747,199.70453 177.436,199.76475 C 175.75454,199.82497 174.40062,200.09924 174.42731,200.37424 C 174.45399,200.64924 176.68011,205.14924 179.37423,210.37424 L 184.27264,219.87424 L 184.33709,213.87424 C 184.46712,201.76868 185.32083,202.39922 190.72424,218.59173 L 195.82398,233.87424 L 196.58943,215.37424 C 197.01042,205.19924 197.57011,196.31174 197.83317,195.62424 C 198.49633,193.89109 200.91885,194.06171 202.83357,195.97644 C 204.23909,197.38195 204.35168,199.83713 203.75074,215.97644 C 203.37398,226.09523 203.29267,234.37424 203.57005,234.37424 C 203.84743,234.37424 209.17779,226.51019 215.4153,216.89857 C 221.65281,207.28695 226.90412,199.5708 227.08488,199.75156 C 227.26564,199.93232 224.27085,209.01252 220.42979,219.9298 C 216.58872,230.84707 213.59287,239.92622 213.77234,240.10568 C 213.95181,240.28515 221.27614,232.99399 230.04864,223.90311 C 238.82114,214.81223 246.70305,207.37424 247.56399,207.37424 C 248.42493,207.37424 249.60114,207.94273 250.17779,208.63755 C 250.96614,209.58744 246.97168,214.3354 234.07672,227.77587 C 224.64448,237.60714 217.81528,245.37934 218.90071,245.04743 C 219.98615,244.71552 228.79225,241.95327 238.46982,238.9091 C 248.1474,235.86493 256.42534,233.37424 256.86525,233.37424 C 257.30515,233.37424 250.63696,238.41156 242.04704,244.5683 C 233.45712,250.72503 226.58101,255.91435 226.76679,256.10013 C 227.20839,256.54173 255.19054,253.6835 262.6752,252.43227 C 268.87451,251.39591 273.37423,252.33152 273.37423,254.65687 C 273.37423,255.65979 268.61684,256.42047 254.12423,257.73486 C 243.53673,258.69509 232.39923,259.76047 229.37423,260.10239 L 223.87423,260.72405 L 247.37423,268.53228 C 260.29923,272.8268 269.84355,276.3481 268.58384,276.35737 C 267.32412,276.36665 256.36294,275.44792 244.22565,274.31576 C 232.08837,273.18359 222.03294,272.39609 221.88026,272.56576 C 221.66686,272.80289 249.64419,295.03711 264.6022,306.51787 C 266.66033,308.09755 266.67721,308.26289 265.03589,310.76787 C 264.09662,312.20137 262.93558,313.37424 262.4558,313.37424 C 261.97603,313.37424 253.7739,307.34503 244.22886,299.97599 C 234.68381,292.60695 226.72857,286.71511 226.55054,286.88301 C 226.37251,287.05091 229.2331,292.74262 232.90739,299.53126 C 236.58169,306.3199 241.14172,314.79924 243.04081,318.37424 L 246.49369,324.87424 L 229.24905,307.37424 C 219.7645,297.74924 212.24638,290.54924 212.54213,291.37424 C 212.83788,292.19924 215.90763,301.42424 219.36379,311.87424 C 222.81996,322.32424 225.72399,330.97454 225.81721,331.09714 C 225.91042,331.21973 227.66434,330.85681 229.7148,330.29065 C 231.76527,329.72449 234.3324,329.54358 235.41954,329.88862 C 237.30307,330.48643 240.37423,335.0956 240.37423,337.32458 C 240.37423,338.98697 237.1407,338.53672 233.94357,336.42915 C 231.8333,335.03805 230.51886,334.76165 229.24801,335.44179 C 227.66985,336.28639 227.62014,336.78248 228.77817,340.13029 C 230.02749,343.74202 230.28161,343.90051 235.97373,344.61798 C 243.81481,345.60633 246.78507,347.87545 247.1795,353.17859 C 247.43845,356.66019 246.97801,357.83596 244.14515,360.92715 C 241.50103,363.81238 239.86229,364.67762 236.27633,365.08181 C 232.19252,365.54211 231.57383,365.32781 229.9847,362.90249 z "
       style="fill:#000000;stroke:none;stroke-opacity:1" />
    <path
       id="path1379"
       d="M 213.81266,303.51172 L 204.36307,276.20389 L 206.36865,273.6542 C 211.34752,267.3246 206.23951,249.58361 198.19929,245.28061 C 196.59558,244.42233 196.88733,245.45178 199.80715,250.95386 C 205.14241,261.0076 204.52042,265.72853 197.38063,269.37097 C 191.26583,272.49051 187.17038,272.04504 183.49652,267.86074 C 181.79983,265.92832 179.61572,262.89082 178.64293,261.11074 L 176.87423,257.87424 L 176.55462,262.37204 C 176.29508,266.02453 176.62398,267.12811 178.30462,268.24402 C 179.80542,269.24051 180.37423,270.68402 180.37423,273.49621 C 180.37423,275.79292 180.85183,277.37424 181.54549,277.37424 C 182.18968,277.37424 183.57207,278.1483 184.61747,279.09437 C 185.66287,280.04044 187.69096,280.86584 189.12435,280.92858 C 191.41356,281.0288 193.6243,284.0896 207.30237,306.09634 C 215.86689,319.87586 222.96154,331.07565 223.06824,330.98478 C 223.17495,330.8939 219.00994,318.53102 213.81266,303.51172 z "
       style="fill:#b2b2b2;stroke:none;stroke-opacity:1;fill-opacity:1" />
    <path
       id="path1377"
       d="M 228.89582,294.77259 C 224.13743,285.64168 220.38596,278.03363 220.55922,277.86583 C 220.93768,277.49926 238.251,291.41338 248.18478,300.06754 C 255.70985,306.62327 258.86772,308.70974 260.46097,308.17866 C 260.99769,307.99975 257.03524,304.20654 251.65553,299.74929 C 246.27581,295.29205 240.52423,290.48893 238.87423,289.07568 C 237.22423,287.66244 231.69184,283.04636 226.58004,278.81772 C 221.46823,274.58909 217.45606,270.95907 217.66411,270.75103 C 217.87216,270.54298 225.09175,270.86069 233.70764,271.45705 C 242.32354,272.05341 249.81853,272.39125 250.36319,272.20779 C 250.90784,272.02434 244.15901,269.39924 235.36579,266.37424 C 226.57256,263.34924 219.3975,260.64924 219.42121,260.37424 C 219.44492,260.09924 224.88455,255.60324 231.50927,250.38314 C 243.51795,240.92061 245.64303,239.00034 243.17617,239.84063 C 239.74428,241.00965 209.23268,249.37424 208.40035,249.37424 C 207.8777,249.37424 209.06451,245.66174 211.03769,241.12424 C 216.12504,229.42546 221.51159,214.29992 221.16677,212.68159 C 220.90621,211.45869 211.5181,226.08465 205.66942,236.82528 C 202.66419,242.34415 202.80569,243.96948 207.07393,252.95717 C 211.80424,262.91786 212.69429,271.09748 209.51567,275.3968 L 207.40463,278.25214 L 212.43713,285.77634 C 215.32319,290.09136 221.60355,297.1549 227.16195,302.33739 C 232.49274,307.30766 237.01025,311.37424 237.20086,311.37424 C 237.39148,311.37424 233.65421,303.9035 228.89582,294.77259 z "
       style="fill:#b2b2b2;stroke:none;stroke-opacity:1;fill-opacity:1" />
    <path
       id="path1375"
       d="M 182.76507,298.91382 C 186.95011,293.71059 190.37423,289.08261 190.37423,288.62943 C 190.37423,287.55167 184.39209,284.02304 183.71421,284.70093 C 183.06811,285.34702 174.45879,308.37424 174.86332,308.37424 C 175.02424,308.37424 178.58003,304.11705 182.76507,298.91382 z "
       style="fill:#b2b2b2;stroke:none;stroke-opacity:1;fill-opacity:1" />
    <path
       id="path1373"
       d="M 164.53317,281.32664 C 176.67959,279.93433 177.85836,279.47494 176.91459,276.50141 C 175.69987,272.67417 172.44922,273.04718 160.37423,278.39942 C 154.04923,281.20298 149.99923,283.28342 151.37423,283.02262 C 152.74923,282.76183 158.67075,281.99864 164.53317,281.32664 z "
       style="fill:#b2b2b2;stroke:none;stroke-opacity:1;fill-opacity:1" />
    <path
       id="path1371"
       d="M 172.42007,261.45989 C 171.45171,259.6505 170.41442,259.38404 164.58905,259.44824 L 157.87423,259.52224 L 165.37423,261.77738 C 169.49923,263.01771 173.02319,263.92296 173.20525,263.78903 C 173.38731,263.65511 173.03398,262.60699 172.42007,261.45989 z "
       style="fill:#b2b2b2;stroke:none;stroke-opacity:1;fill-opacity:1" />
    <path
       id="path1369"
       d="M 115.12423,257.68491 C 114.16173,257.43339 112.58673,257.43339 111.62423,257.68491 C 110.66173,257.93644 111.44923,258.14224 113.37423,258.14224 C 115.29923,258.14224 116.08673,257.93644 115.12423,257.68491 z "
       style="fill:#b2b2b2;stroke:none;stroke-opacity:1;fill-opacity:1" />
    <path
       id="path1367"
       d="M 170.79244,254.76725 C 172.43136,254.13834 172.89284,250.72759 171.60892,248.73275 C 170.5812,247.13599 66.476,244.04489 64.65397,245.55704 C 63.60481,246.42777 62.75419,252.13787 63.62423,252.46954 C 64.30165,252.72778 142.71956,255.08817 155.04244,255.22124 C 162.83496,255.30539 169.92246,255.1011 170.79244,254.76725 z "
       style="fill:#b2b2b2;stroke:none;stroke-opacity:1;fill-opacity:1" />
    <path
       id="path1365"
       d="M 187.45115,250.45116 C 194.68055,243.22177 186.83345,233.36972 178.34674,239.02054 C 172.84392,242.68456 171.81982,247.09075 175.54854,251.05979 C 178.71731,254.43279 183.72562,254.1767 187.45115,250.45116 z "
       style="fill:#ffe699;stroke:none;stroke-opacity:1;fill-opacity:1" />
    <path
       id="path1363"
       d="M 177.12423,249.29414 C 174.91006,248.0045 174.90792,245.97223 177.1168,242.23289 C 178.64883,239.63937 179.34356,239.31867 182.8668,239.57859 C 186.56811,239.85166 186.89783,240.118 187.18319,243.06528 C 187.72142,248.62424 182.02757,252.15007 177.12423,249.29414 z "
       style="fill:#000000;stroke:none;stroke-opacity:1" />
    <path
       id="path1361"
       d="M 102.64327,242.7183 C 101.96623,242.44438 100.61623,242.42771 99.64327,242.68125 C 98.6703,242.93479 99.22423,243.15891 100.87423,243.17929 C 102.52423,243.19967 103.3203,242.99223 102.64327,242.7183 z "
       style="fill:#b2b2b2;stroke:none;stroke-opacity:1;fill-opacity:1" />
    <path
       id="path1359"
       d="M 159.83068,197.2462 C 158.49726,193.32578 156.61227,189.53757 155.64183,188.82796 C 154.67138,188.11835 153.77485,187.64029 153.64953,187.76561 C 152.67958,188.73555 160.43198,204.37424 161.88275,204.37424 C 162.08753,204.37424 161.1641,201.16662 159.83068,197.2462 z "
       style="fill:#ffea66;stroke:none;stroke-opacity:1;fill-opacity:1" />
    <path
       id="path1357"
       d="M 168.16805,182.12424 C 165.60178,177.19349 163.15765,173.74175 162.09318,173.54494 C 160.60909,173.27054 160.93163,174.46764 164.02756,180.72439 C 167.07791,186.88906 169.44918,189.68028 172.16805,190.30656 C 172.32965,190.34378 170.52965,186.66174 168.16805,182.12424 z "
       style="fill:#ffea66;stroke:none;stroke-opacity:1;fill-opacity:1" />
    <path
       id="path1355"
       d="M 169.00909,359.30166 C 167.48768,358.10492 166.37423,356.22823 166.37423,354.86068 C 166.37423,351.34721 168.06142,350.94807 169.56968,354.10473 C 170.31908,355.67316 171.86468,357.01282 173.1336,357.19379 C 176.4414,357.66554 176.04583,354.13637 172.18892,348.76573 C 169.49646,345.01654 169.15037,343.91296 169.95212,341.63319 C 170.4738,340.14979 172.08626,338.27063 173.53536,337.45727 C 175.9074,336.12589 176.57966,336.16313 180.27791,337.83081 C 185.76218,340.30386 186.65499,341.50558 185.42048,344.7526 C 184.07408,348.2939 182.60603,348.05276 181.59503,344.12424 C 180.9461,341.60263 180.15527,340.80332 178.06644,340.55782 C 174.35732,340.12188 174.47415,343.14903 178.37423,348.53294 C 180.02423,350.8107 181.37423,353.69914 181.37423,354.9517 C 181.37423,357.65752 177.03399,361.37424 173.87423,361.37424 C 172.64757,361.37424 170.45826,360.44158 169.00909,359.30166 z "
       style="fill:#000000;stroke:none;stroke-opacity:1" />
    <path
       id="path1353"
       d="M 158.71813,355.37781 C 156.64583,354.54196 156.61865,354.34381 158.01886,350.27965 C 158.82012,347.95398 159.34037,344.44214 159.17496,342.47556 L 158.87423,338.89998 L 155.62423,343.33411 C 153.77201,345.86119 152.37423,348.98251 152.37423,350.59157 L 152.37423,353.41489 L 148.34039,351.35698 C 144.7152,349.50754 144.46194,349.14368 145.84039,347.76522 C 146.74835,346.85726 147.37423,344.4577 147.37423,341.8846 C 147.37423,339.49387 147.64737,336.82601 147.98122,335.95603 C 148.31506,335.08604 148.20256,334.37511 147.73122,334.37617 C 146.25571,334.3795 140.37423,343.80314 140.37423,346.16394 C 140.37423,348.10943 140.00373,348.32379 137.62423,347.75503 C 133.15644,346.68713 133.15799,346.48789 137.6802,340.55691 C 140.06328,337.43144 143.24224,333.18674 144.74454,331.12424 C 146.83368,328.25609 148.16952,327.37424 150.42512,327.37424 C 153.09459,327.37424 153.3701,327.68241 153.33068,330.62424 C 153.30673,332.41174 152.91053,335.82294 152.45024,338.20467 C 151.48882,343.17957 152.07349,342.84256 156.70666,335.75124 C 159.95139,330.785 163.61459,328.95227 164.69076,331.75673 C 165.00486,332.57526 164.7883,336.28667 164.20952,340.0043 C 163.63074,343.72194 163.36497,348.92603 163.61892,351.56894 C 164.11475,356.72921 163.41566,357.27254 158.71813,355.37781 z "
       style="fill:#000000;stroke:none;stroke-opacity:1" />
    <path
       id="path1351"
       d="M 99.5734,323.94306 C 98.36386,320.78233 97.37423,317.84484 97.37423,317.41531 C 97.37423,316.98578 99.33587,316.41324 101.73342,316.143 C 104.85404,315.79126 107.74848,314.40469 111.92045,311.26295 C 117.69691,306.91294 117.72244,306.87124 114.8153,306.53408 C 108.89004,305.8469 99.36217,307.47081 97.48266,309.48824 C 95.3703,311.75558 94.35981,310.93853 92.51933,305.47502 C 90.98819,300.92981 91.06171,300.37424 93.1943,300.37424 C 94.19534,300.37424 98.77631,297.89924 103.37423,294.87424 L 111.73409,289.37424 L 107.69065,289.37424 C 101.4841,289.37424 93.21631,291.20718 91.20256,293.0296 C 89.49218,294.57748 89.27534,294.4049 87.28926,289.91504 C 85.91481,286.80788 85.52637,284.8221 86.16759,284.18089 C 86.8088,283.53967 87.38118,283.57646 87.82038,284.28711 C 88.6313,285.5992 97.50792,285.64554 110.34109,284.40468 C 120.54473,283.41807 122.37423,283.93437 122.37423,287.80052 C 122.37423,290.34692 117.75553,294.96409 111.37423,298.79688 L 106.87423,301.4997 L 116.92415,300.84342 C 125.32323,300.29495 127.18476,300.44102 128.25677,301.7327 C 130.55519,304.50213 128.44216,307.1246 118.96621,313.26316 C 110.39392,318.81633 105.51836,323.23032 102.8234,327.87771 C 101.92441,329.42801 101.45481,328.85948 99.5734,323.94306 z "
       style="fill:#000000;stroke:none;stroke-opacity:1" />
    <path
       id="path1349"
       d="M 284.59674,303.81754 C 281.89393,301.92442 281.72398,300.37424 284.21924,300.37424 C 286.11726,300.37424 289.37423,297.45962 289.37423,295.76111 C 289.37423,295.2355 288.11491,294.06156 286.57574,293.15235 C 283.91447,291.5803 283.71601,291.59731 282.52821,293.49929 C 281.84123,294.59931 281.55587,296.37119 281.89408,297.43679 C 282.67537,299.8984 281.27669,299.89366 277.21057,297.4209 L 273.99856,295.46757 L 276.55001,294.49751 C 278.65055,293.69888 281.1563,290.51664 280.14777,289.92845 C 279.99732,289.84071 278.678,289.02178 277.21594,288.10862 C 274.93888,286.68642 274.38947,286.65095 273.38501,287.86125 C 272.74006,288.63837 272.3597,290.9842 272.53977,293.07421 C 272.76196,295.65321 272.46664,296.84211 271.62069,296.77424 C 270.93514,296.71924 269.69923,296.60674 268.87423,296.52424 C 268.04923,296.44174 267.37423,295.46301 267.37423,294.34928 C 267.37423,292.0255 274.01863,278.37424 275.14967,278.37424 C 275.56234,278.37424 276.34418,279.35269 276.8871,280.54857 C 278.12814,283.28218 288.95595,289.34641 292.62423,289.36232 C 294.13673,289.36887 295.37423,289.87247 295.37423,290.48141 C 295.37423,291.83713 288.08285,305.35821 287.34674,305.36755 C 287.05661,305.37123 285.81911,304.67372 284.59674,303.81754 z "
       style="fill:#000000;stroke:none;stroke-opacity:1" />
    <path
       id="path1347"
       d="M 294.0409,285.70757 C 292.67452,284.34119 293.44054,282.37424 295.33905,282.37424 C 297.72807,282.37424 300.03232,278.63233 298.55378,277.15379 C 297.87946,276.47947 295.66716,277.00915 291.84029,278.76115 C 284.26556,282.22898 281.93979,282.15383 280.38113,278.39091 C 278.85366,274.70326 279.73566,269.45577 282.46646,265.98411 C 284.42393,263.4956 284.62571,263.45292 287.47288,264.92525 C 290.77087,266.63071 290.50031,268.37424 286.93766,268.37424 C 283.95499,268.37424 282.02934,270.71223 282.859,273.32625 C 283.69044,275.94587 284.39645,275.90341 290.37423,272.87424 C 296.2994,269.87173 298.95426,269.721 300.33905,272.3085 C 301.87608,275.18047 301.59262,281.61743 299.81753,284.15173 C 298.31334,286.29926 295.41358,287.08026 294.0409,285.70757 z "
       style="fill:#000000;stroke:none;stroke-opacity:1" />
    <path
       id="path1345"
       d="M 270.76844,224.11065 C 268.51026,217.93063 266.84362,212.54596 267.0648,212.14472 C 267.28598,211.74348 268.32937,211.95379 269.38343,212.61206 C 271.76106,214.09691 277.3695,212.73935 288.32391,208.02739 C 294.09122,205.54663 295.94969,204.2595 296.19378,202.57696 C 296.36953,201.36546 296.86964,200.37424 297.30513,200.37424 C 298.2159,200.37424 303.64353,212.97943 305.23058,218.78039 C 306.47857,223.34201 306.25717,223.8663 302.19592,225.96645 C 299.90206,227.15265 298.8626,227.25956 298.00933,226.39706 C 297.16092,225.53948 297.31623,225.00029 298.62423,224.26227 C 301.05734,222.88943 300.60321,216.86959 297.73875,212.52458 C 297.27142,211.81569 290.49665,214.52181 289.38483,215.86147 C 287.82955,217.73546 289.6921,221.1644 292.93503,222.39736 C 294.27659,222.90742 295.37423,223.76036 295.37423,224.29279 C 295.37423,226.05331 290.9828,228.37424 287.65172,228.37424 C 284.24895,228.37424 283.59093,227.55754 285.47539,225.67308 C 286.61657,224.5319 285.85971,218.79232 284.45345,217.9232 C 283.29721,217.2086 276.73821,219.23075 275.54366,220.67009 C 274.21936,222.26577 277.63729,230.37424 279.63421,230.37424 C 280.38098,230.37424 281.86548,231.04069 282.9331,231.85524 C 284.61325,233.13712 284.67256,233.47118 283.37423,234.33992 C 282.54923,234.89195 280.29923,235.34439 278.37423,235.34534 L 274.87423,235.34707 L 270.76844,224.11065 z "
       style="fill:#000000;stroke:none;stroke-opacity:1" />
    <path
       id="path1343"
       d="M 240.89708,198.19612 C 236.51725,196.58516 232.76261,195.09596 232.55344,194.88678 C 232.34427,194.67761 233.03261,193.58392 234.0831,192.45636 C 236.37752,189.99358 240.84348,177.77341 240.58601,174.66248 C 240.47373,173.30576 240.88141,172.59704 241.63848,172.83284 C 257.43011,177.75135 257.4803,177.7879 255.42582,182.87424 C 254.6644,184.7593 254.54629,184.72062 253.37063,182.20116 C 251.77175,178.77471 247.4581,177.53905 245.66343,179.99341 C 244.95437,180.96311 244.37423,182.27326 244.37423,182.90485 C 244.37423,184.5 249.13122,186.57646 249.90762,185.32022 C 251.05971,183.4561 252.37874,185.50883 251.74879,188.18553 C 250.76219,192.37768 249.82154,192.73064 247.04241,189.95151 C 243.87742,186.78652 242.78403,186.71549 242.00452,189.62424 C 240.50817,195.20784 240.92457,195.66087 246.87027,194.918 C 251.90982,194.28835 252.3113,194.3826 251.7041,196.05278 C 249.80906,201.26533 249.44033,201.33846 240.89708,198.19612 z "
       style="fill:#000000;stroke:none;stroke-opacity:1" />
    <path
       id="path1341"
       d="M 225.15772,191.62424 C 222.65114,188.75064 221.63874,186.21134 220.3138,179.47463 L 219.05515,173.07503 L 217.27056,177.47463 C 216.28904,179.89442 215.46083,183.33674 215.4301,185.12424 C 215.36909,188.67316 214.75202,188.95912 210.92128,187.21372 C 208.35312,186.04359 207.47612,184.37424 209.42955,184.37424 C 211.30309,184.37424 215.56931,173.49174 215.72537,168.31452 C 215.80724,165.59856 216.25673,163.37593 216.72423,163.37533 C 217.19173,163.37473 219.04468,164.84469 220.84189,166.6419 C 223.52603,169.32604 224.34602,171.23274 225.43373,177.31922 L 226.75791,184.72888 L 228.49191,180.80156 C 229.44561,178.64154 230.25928,175.18674 230.30007,173.12424 C 230.3815,169.00686 230.63315,168.87134 235.22501,170.47207 C 238.47737,171.60585 239.49795,173.37424 236.89991,173.37424 C 235.00417,173.37424 233.13003,177.07473 230.44258,186.12424 C 229.25841,190.11174 227.92834,193.37424 227.48687,193.37424 C 227.04541,193.37424 225.99729,192.58674 225.15772,191.62424 z "
       style="fill:#000000;stroke:none;stroke-opacity:1" />
    <path
       id="path1339"
       d="M 142.03468,172.89183 C 140.38264,171.23979 140.84711,168.0566 143.00105,166.26899 C 144.10342,165.3541 144.84477,165.4901 146.39299,166.89122 C 148.78339,169.0545 148.89799,170.70762 146.8028,172.80281 C 144.84822,174.7574 143.91762,174.77477 142.03468,172.89183 z "
       style="fill:#000000;stroke:none;stroke-opacity:1" />
    <path
       id="path1337"
       d="M 158.75827,163.93265 C 157.69309,161.15683 158.83053,158.87424 161.27894,158.87424 C 164.43335,158.87424 166.22024,161.64993 164.4438,163.79042 C 162.80209,165.76855 159.49452,165.8513 158.75827,163.93265 z "
       style="fill:#000000;stroke:none;stroke-opacity:1" />
    <path
       id="path1335"
       d="M 312.79586,353.62424 C 328.97701,336.51928 337.29354,325.25226 344.2468,311.01526 C 358.10514,282.63993 362.5771,246.38125 356.26465,213.57445 C 354.30347,203.38188 349.50435,188.20653 346.71401,183.37424 L 345.27041,180.87424 L 345.8349,183.59846 C 349.66101,202.06319 350.65991,210.99587 350.73015,227.37424 C 350.7751,237.85463 350.292,247.48152 349.52576,251.37424 C 345.78251,270.39123 336.43528,292.0393 323.70882,311.16598 C 317.37203,320.6896 303.36763,335.82824 295.53786,341.61856 C 290.50129,345.34323 290.31038,345.64122 292.13976,346.92256 C 293.20581,347.66925 295.99753,351.22635 298.34359,354.82721 C 300.68965,358.42808 303.25158,361.37424 304.03678,361.37424 C 304.82198,361.37424 308.76357,357.88674 312.79586,353.62424 z "
       style="fill:#cca300;stroke:none;stroke-opacity:1;fill-opacity:1" />
  </g>
</svg>
