<?xml version="1.0" encoding="utf-8"?>
<!-- Generator: Adobe Illustrator 18.1.1, SVG Export Plug-In . SVG Version: 6.00 Build 0)  -->
<svg version="1.1"
	 id="svg32" xmlns:sodipodi="http://sodipodi.sourceforge.net/DTD/sodipodi-0.dtd" sodipodi:docname="/home/mira/home.svg" sodipodi:version="0.34" sodipodi:docbase="/home/mira/"
	 xmlns="http://www.w3.org/2000/svg" xmlns:xlink="http://www.w3.org/1999/xlink" x="0px" y="0px" viewBox="299 86.5 51.5 47.6"
	 enable-background="new 299 86.5 51.5 47.6" xml:space="preserve">
<sodipodi:namedview  id="base"></sodipodi:namedview>
<path id="path19" fill="#FFED44" d="M303.2,121.9c0.3,1.9-1.7,2.1-2,2.9c1.8,1.3-2.9,3.3-2,3.9c0.6,0.6,10,4.3,11.6,4.5
	c9.4,1.8,29,0.5,32.6-1.2c4.3-2.4,6.5-2.7,7.2-3.9c-0.4-1-4.2-2.8-3.4-3.5c-0.7-0.9-3.6-0.8-3-2.6c-2.1-0.6-0.4,0-1.9-1.1
	c-0.6-0.1-0.7-1.3-1.3-1.3c-5.1-3.4-29.7-2.3-34.9,0.6C305.3,121.7,304,121.6,303.2,121.9z"/>
<path id="path20" fill-opacity="0.2266" d="M306.8,126.6c0.8,1.2-3.3,4.2-1.9,4.7c16.2-1.3,21.1-2.1,30,0.3c1-0.6,9.9-4.8,7.8-5.3
	C339.4,125.9,319.7,125.8,306.8,126.6z"/>
<linearGradient id="path12_1_" gradientUnits="userSpaceOnUse" x1="206.0902" y1="143.8396" x2="206.1673" y2="143.7477" gradientTransform="matrix(289.3268 0 0 -295.7213 -59318.3047 42632.3984)">
	<stop  offset="0" style="stop-color:#FFFA00"/>
	<stop  offset="1" style="stop-color:#FFFFFF"/>
</linearGradient>
<path id="path12" fill="url(#path12_1_)" stroke="#000000" d="M307.4,104.3c0-0.3,11.3-9.1,17.8-13.8c6.3,4.6,17.1,13.2,16.9,13.7
	c-0.1,0.9,0,20.6,0,21.6c-1.6-0.1-10.9-0.2-13.8-0.2c0-1.3,0.2-12.9,0.2-13.4c-0.1-0.2-6.8-0.3-7.9-0.1c0,0.6-0.4,12.6-0.4,13.8
	c-1.7,0-11.5,0.1-12.7,0.1C307.4,125.9,307.4,105.1,307.4,104.3z"/>
<path id="path16" stroke="#000000" d="M327.8,98.7c0,1.5-1.4,2.8-3.1,2.8c-1.7,0-3.1-1.2-3.1-2.8c0-1.5,1.4-2.8,3.1-2.8
	C326.4,96,327.8,97.2,327.8,98.7z"/>
<path id="path14" fill="#A1282E" d="M303.5,106.7c1.8-1.3,20.2-16.2,21.8-17.2c1.5,1.1,19.6,16.3,20.7,17.1c0.8-0.6-0.1-1.6,0.3-2.8
	c-1-1.1-19.7-16-20.9-17.2c-1.4,1.1-21.4,16.1-22.5,17.1C303.5,104.6,302.8,105.9,303.5,106.7z"/>
<linearGradient id="path52_1_" gradientUnits="userSpaceOnUse" x1="204.7851" y1="144.9339" x2="204.8622" y2="144.9353" gradientTransform="matrix(59.9724 0 0 -119.34 -11960.9023 17416.1055)">
	<stop  offset="0" style="stop-color:#B55F07"/>
	<stop  offset="1" style="stop-color:#FFBA00"/>
</linearGradient>
<path id="path52" fill="url(#path52_1_)" d="M327.8,112.5c-0.2,1.1,0,11.3-0.3,14.1c-1.6,0.1-5.7,0.3-6.9-0.1c0-1.9,0-12.7,0.1-14
	C322.1,112.7,327.1,112.4,327.8,112.5z"/>
<path id="path56" fill="none" stroke="#FFC200" d="M327.8,98.8c0,1.6-1.4,2.9-3.2,2.9s-3.2-1.3-3.2-2.9c0-1.6,1.4-2.9,3.2-2.9
	S327.8,97.2,327.8,98.8z"/>
<linearGradient id="path63_1_" gradientUnits="userSpaceOnUse" x1="72.7643" y1="161.827" x2="72.7643" y2="161.827" gradientTransform="matrix(0.9425 0 0 -0.9733 259.2558 256.1359)">
	<stop  offset="0" style="stop-color:#FFFFFF;stop-opacity:0.8039"/>
	<stop  offset="1" style="stop-color:#000000;stop-opacity:0"/>
</linearGradient>
<path id="path63" sodipodi:type="arc" sodipodi:start="0" sodipodi:ry="24.5726204" sodipodi:rx="28.50424" sodipodi:end="6.28318531" sodipodi:cy="171.289841" sodipodi:cx="283.795471" fill="none" stroke="url(#path63_1_)" d="
	M327.8,98.6L327.8,98.6L327.8,98.6z"/>
<linearGradient id="path64_1_" gradientUnits="userSpaceOnUse" x1="206.1736" y1="143.6026" x2="206.241" y2="143.4974" gradientTransform="matrix(362.4439 0 0 -193.5372 -74417.6641 27884.2715)">
	<stop  offset="0" style="stop-color:#FFFFFF;stop-opacity:0.8039"/>
	<stop  offset="1" style="stop-color:#000000;stop-opacity:0"/>
</linearGradient>
<path id="path64" fill="url(#path64_1_)" d="M302.9,106.8c1.3-0.7,2.5-2.1,3.9-2.5c-0.3,4.4-0.2,2.4-0.3,5.5
	c4.8-1.8,13.1-11.7,15.3-10.4c6,3.8,9.1,5.5,11.8,7.7c3.7,0.4,9.5-0.2,9.6-2.7c0.9,0.4,1.4,1.1,3.1,2.1c-0.1-0.9,0-2-0.1-3.1
	c-2.4-2-19.2-15.2-21-16.9c-2.7,1.9-18.9,14.6-22.4,17C303,104.5,302.9,105.5,302.9,106.8z"/>
</svg>
